<svg fill="none" height="34" viewBox="0 0 72 34" width="72" xmlns="http://www.w3.org/2000/svg" xmlns:xlink="http://www.w3.org/1999/xlink"><clipPath id="a"><path d="m0 0h72v34h-72z"/></clipPath><g clip-path="url(#a)" fill="#ebf3eb"><path d="m26.4404 6.39342h5.0649c1.8603-.03647 3.9126.46188 3.9126 2.74696 0 .98452-.576 1.77462-1.4282 2.21212 1.1522.3404 1.8603 1.3492 1.8603 2.589 0 2.6132-1.8963 3.4033-4.2127 3.4033h-5.1969zm2.8085 4.30278h2.1844c.4801 0 1.1522-.2553 1.1522-1.04533 0-.80221-.5641-1.05745-1.1522-1.05745h-2.1844zm0 4.3635h2.2684c.8881 0 1.5122-.3282 1.5122-1.2276 0-.9602-.6721-1.2884-1.5122-1.2884h-2.2564v2.516z"/><path d="m36.6302 9.38365h2.4964v1.39785h.036c.3841-1.0089 1.2602-1.54371 2.3644-1.54371.192 0 .4081.01216.6001.06077v2.38234c-.3361-.0972-.6361-.158-.9842-.158-1.2722 0-1.9443.8873-1.9443 1.884v3.9381h-2.5804v-7.96135z"/><path d="m45.5238 8.38693h-2.5804v-1.99338h2.5804zm-2.5804.99669h2.5804v7.96128h-2.5804z"/><path d="m51.8011 11.0727h-1.5963v3.6221c0 .632.36.7657.9241.7657.2161 0 .4441-.0243.6722-.0243v1.9204c-.4681.0122-.9362.073-1.4043.073-2.1964 0-2.7605-.6442-2.7605-2.8078v-3.5491h-1.3082v-1.68951h1.3082v-2.40663h2.5805v2.40663h1.5843z"/><path d="m55.1732 8.38693h-2.5804v-1.99338h2.5804zm-2.5684.99669h2.5804v7.96128h-2.5804z"/><path d="m58.4377 14.7197c0 .4011.168.6928.42.8873.2401.1823.5881.2795.9602.2795.5041 0 1.2122-.2187 1.2122-.8386 0-.6078-.8041-.7415-1.2602-.8387-1.6203-.4133-3.6486-.4619-3.6486-2.6133 0-1.92042 2.0403-2.44307 3.5886-2.44307 1.7283 0 3.5286.5105 3.6246 2.57677h-2.3764c0-.3403-.12-.5469-.3361-.6928-.216-.1337-.504-.1944-.8161-.1944-.4201 0-1.1042.0486-1.1042.5955 0 .7536 1.7283.8873 2.9045 1.1547 1.5963.3282 2.0043 1.4829 2.0043 2.1514 0 2.1392-2.0043 2.8442-3.7686 2.8442-1.8603 0-3.7686-.632-3.8526-2.8563h2.4484z"/><path d="m64.1751 6.39355h2.5804v4.08395h.024c.3961-.81434 1.4523-1.32484 2.3884-1.32484 2.6165 0 2.8325 1.93264 2.8325 3.08734v5.1049h-2.5804v-3.853c0-1.0818.12-2.1878-1.2842-2.1878-.9722 0-1.3923.8265-1.3923 1.7016v4.3392h-2.5804v-10.95135z"/><path d="m26.4404 19.4111h2.8085v8.4961h5.0529v2.4553h-7.8614z"/><path d="m35.4178 24.8566c.048-1.0453.528-1.7138 1.2241-2.1392.6961-.4011 1.6084-.547 2.4965-.547 1.8603 0 3.6727.4133 3.6727 2.674v3.4884c0 .6807-.0001 1.41.2999 2.042h-2.5923c-.096-.2431-.1202-.4862-.1562-.7536-.6721.705-1.6562.9845-2.5924.9845-1.5002 0-2.6763-.7657-2.6763-2.4066 0-2.5889 2.7844-2.3945 4.5727-2.7591.4441-.0972.6841-.2431.6841-.7414 0-.5956-.7081-.8265-1.2482-.8265-.7081 0-1.1643.316-1.2843.9966h-2.4003zm3.3365 4.1204c1.2242 0 1.6322-.705 1.5722-2.3458-.36.2309-1.032.2795-1.5961.4254-.5761.1337-1.0563.3889-1.0563 1.0088 0 .6564.5041.9116 1.0802.9116z"/><path d="m43.927 22.4013h2.4965v1.094h.024c.468-.8144 1.5362-1.3249 2.4724-1.3249 2.6164 0 2.8325 1.9326 2.8325 3.0873v5.105h-2.5805v-3.8531c0-1.0939.12-2.1878-1.2842-2.1878-.9722 0-1.3922.8265-1.3922 1.7016v4.3393h-2.5805v-7.9614z"/><path d="m60.8026 30.3625h-2.4604v-.9238h-.036c-.5041.7536-1.2603 1.1547-2.1724 1.1547-2.4724 0-3.5166-2.1514-3.5166-4.3878 0-2.0663 1.0922-4.0354 3.3125-4.0354.9722 0 1.7163.3647 2.2444 1.0939h.036v-3.853h2.5925zm-5.593-4.0718c0 1.0939.3961 2.2972 1.5723 2.2972 1.2602 0 1.5363-1.2155 1.5363-2.2243 0-1.1547-.4081-2.2122-1.5363-2.2122-1.1762.0122-1.5723 1.1304-1.5723 2.1393z"/><path d="m22.7798 27.6276c-1.0681.3281-2.4244.8508-4.7047 1.6044.492-1.9205.7681-4.6796.6001-7.621-.9962-.1459-2.0764-.4133-2.5685-.632.2161 4.5215-.7201 9.0066-1.0202 9.1646 0 0-3.5766 1.2398-7.66925.9967-2.41241-.1459-5.04085-.8387-7.273226-2.4917l-.144024 2.6861c.696118.6199 4.02068 2.6619 7.56128 2.6619 4.26072.073 7.86132-1.0696 11.35392-2.2486 2.5204-.8508 3.8646-1.3613 3.8646-1.3613z"/><path d="m1.90867 23.2158c-.44407.3647-.85214.8509-1.152192 1.4708-.408069.8508-.528089 2.0055-.564095 2.6375 1.896317 1.2884 4.968837 2.516 8.461427 2.516-1.89632-.8629-4.69279-2.8198-6.74514-6.6243z"/><path d="m10.4778 29.7547s1.5002-.1337 3.1925-.547c-3.1325-.6199-7.6333-3.3911-10.14172-6.8552-.012 0-.024 0-.024.0121-.32406.0851-.72012.2553-1.10419.5105 1.06818 1.7746 3.25255 4.6188 8.07741 6.8796z"/><path d="m19.6953 26.3633c.06 0 1.1522-1.0089 2.2324-2.8442-.5041-.6685-1.2122-1.2398-2.0764-1.5923.0961 1.41.1081 2.7348-.156 4.4365z"/><path d="m19.5752 27.4086c.6481-.2188 2.0883-.705 3.2045-1.0453v-.5834c0-.316-.06-.6442-.156-.9481-.072-.2066-.156-.4133-.252-.6077-.7322 1.1911-1.6443 2.2972-2.7965 3.1845z"/><path d="m14.4619 27.8342c.06-.158.096-.316.132-.474.048-.2188.084-.4498.12-.6807.036-.2796.072-.5591.108-.8265.0361-.316.0601-.6199.0961-.9359.024-.3282.048-.6685.072-.9967.024-.3403.036-.6685.048-1.0089.012-.3281.024-.6441.024-.9723 0-.2917 0-.5956-.012-.8873-.024-.6807-.132-1.3492.06-2.0177.12-.4011.3-.79.5641-1.1182.252-.3282.6241-.6442 1.0442-.6685 1.2002-.073 2.5684.3889 2.8685-.2188.288-.5713.072-.9481.024-1.1304-.1441-.3646.252-.5956.252-.5956.312-.2674-.06-.5591-.06-.5591.6601-.1945.3-.5834.3-.5834-.132-.1702-.144-.6078-.144-.6078s.2521-.1944.6241-.4132c.2161-.1216.3001-.4011-.06-.7658-.9722-1.0696-1.2242-1.6044-1.2242-1.6044-.06-.1215-.048-.2552.06-.316s.144-.0729.144-.1702c.1081-1.44634-.6121-2.79551-1.1282-3.46402.1681-.1337.3361-.12155.3361-.12155-.4561-.49834-.9482-.82652-1.6083-1.14254 1.4283-.97238 1.7043-2.81989 1.7043-2.81989.2641-1.32486 1.5243-2.285077 1.5243-2.285077-3.3126-.4375687-4.8848.243093-4.8848.243093-.0961-.352486.156-.692816.156-.692816-3.5766.522651-4.4408 1.78674-4.4768 1.83536-.204-.21879-.312-.63205-.312-.63205-1.40427 1.59227-1.89634 2.77127-2.13638 3.4884-.22804-.14586-.42008-.38895-.42008-.38895-.79214 2.0906-.80414 3.43977-.75613 4.18121-.27605-.03647-.5641-.20663-.5641-.20663.12002 1.96906.49209 3.18446.81614 3.90166-.25204.0486-.49208-.0487-.49208-.0487.18003.4619.38406.9116.6001 1.3492.18003.3525.36006.6928.5761 1.0332.15602.2552.33605.5105.52809.7414.06001.0729.12002.1459.18003.2066.12002.1337.26404.2431.38406.3647.26405.2552.36007.6442.38408 1.0088.20407 2.7713-2.72447 4.2785-4.80083 5.0199 4.18871 4.4729 8.8935 5.9436 9.3496 5.9801z"/></g></svg>