<svg fill="none" height="20" viewBox="0 0 20 20" width="20" xmlns="http://www.w3.org/2000/svg"><path d="m19.6529.347629c.1063.097318.1918.215113.2515.346301.0596.131189.0921.273081.0955.41715v17.77672c-.0006.2791-.0988.5491-.2775.7634-.102.1192-.2304.2129-.375.2735-.1446.0607-.3014.0867-.4579.0759h-4.9994v-7.7779h2.4985l.4164-2.9173h-3.0537v-1.94568c0-.55522.1157-.94849.347-1.17983.2393-.23932.6246-.34703 1.1799-.34703h1.6752v-2.63252c-.783-.09423-1.5711-.14057-2.3597-.1388-1.2062 0-2.1555.34781-2.8479 1.04343-.6924.69563-1.0395 1.6904-1.0411 2.98432v2.2233h-2.6325v2.91731h2.6325v7.7779h-9.57279c-.144366-.0031-.286526-.0356-.417822-.0957s-.248935-.1464-.345601-.2537c-.106716-.097-.192508-.2147-.252174-.346-.0596666-.1312-.091942-.2733-.0948286-.4174v-17.77674c.0028866-.144159.035162-.286228.0948286-.417494.059666-.131266.145458-.248985.252174-.345951.097144-.106497.2149-.192146.346127-.251794.131227-.059649.273179-.0920439.417296-.0952085h17.77909c.2825.0108034.5493.1329625.7419.3398165z" fill="#fff"/></svg>