<svg fill="none" height="20" viewBox="0 0 20 20" width="20" xmlns="http://www.w3.org/2000/svg"><path d="m19.9973 9.99704v4.02776c-.0576.8499-.2183 1.6898-.4787 2.5009-.2357.6541-.6152 1.247-1.1104 1.7351-.515.5119-1.129.9133-1.8045 1.1798-.7807.2976-1.5991.4853-2.4315.5576h-8.19433c-.85012-.0562-1.69007-.217-2.50089-.4786-.6541-.2358-1.24701-.6152-1.73507-1.1104-.51263-.5144-.914191-1.1286-1.179835-1.8045-.298402-.7804-.4853313-1.599-.55523906-2.4315v-8.33315c.06356526-.80303.22428606-1.59537.47864106-2.3597.234491-.65543.614133-1.24939 1.110483-1.73747.51462-.51236 1.12868-.913911 1.80442-1.179857.78081-.297014 1.5992-.4838692 2.43153-.5552105h8.33309c.8323.0716176 1.6507.2584645 2.4315.5552105.6477.248632 1.2381.626447 1.7351 1.110447.4846.49755.8624 1.08878 1.1104 1.73747.2971.77997.484 1.59754.5553 2.42911zm-1.8045.06946c0-1.9888-.024-3.3338-.0694-4.02783-.032-.61461-.1487-1.22186-.347-1.80448-.1612-.4674-.4217-.89438-.7634-1.25164-.3569-.34233-.784-.60283-1.2517-.76342-.5599-.19399-1.1436-.31075-1.7351-.34703-.6493-.04468-1.9688-.06779-3.9583-.06938-1.98958-.0016-3.33218.02151-4.02781.06938-.61464.03168-1.22193.14848-1.80448.34703-.46823.15946-.89556.4201-1.25164.76342-.34345.35598-.60411.78335-.76342 1.25164-.19627.55927-.31307 1.14333-.347 1.73507-.04787.64856-.06942 1.99356-.06942 4.02778 0 2.03426.02155 3.38156.06942 4.02776.03345.5918.15027 1.1759.347 1.7351.15764.469.41851.8968.76342 1.2516.35485.3449.78256.6058 1.25164.7635.55977.1944 1.14357.3112 1.73507.347.64617.0462 1.96563.0694 3.95837.0694 1.99275 0 3.33535-.0232 4.02775-.0694.6146-.032 1.2219-.1487 1.8045-.347.4685-.159.8959-.4197 1.2517-.7635.3433-.3561.6039-.7834.7634-1.2516.1976-.5627.3371-1.1441.4164-1.7351zm-5.6145-4.51365c.7754.45419 1.4207 1.10038 1.8739 1.87629.4595.7774.6993 1.6649.694 2.5679.006.90386-.2339 1.79226-.694 2.57026-.4526.7757-1.0982 1.4212-1.8739 1.8739-.7779.4603-1.6664.7002-2.5703.694-.90391.0068-1.79258-.2331-2.57026-.694-.77677-.4513-1.42262-1.0971-1.87389-1.8739-.46121-.7775-.70117-1.6663-.69401-2.57026-.00648-.90315.23345-1.79097.69401-2.5679.45191-.77691 1.09756-1.42339 1.87389-1.87629.77815-.45975 1.66651-.6996 2.57026-.69401.9038-.00499 1.792.23482 2.5703.69401zm-.2105 6.80625c.3151-.3063.564-.6739.7315-1.0802.1676-.4062.2501-.8425.2425-1.28186.0072-.43898-.0754-.8748-.2429-1.28062s-.4163-.77305-.7311-1.07907c-.3061-.31481-.6733-.56365-1.0791-.73117-.4059-.16751-.8417-.25017-1.2807-.24288-.43933-.00762-.87561.07489-1.28186.24241-.40626.16753-.77392.41653-1.08022.73164-.31448.30614-.56289.67344-.72999 1.07927-.16711.40584-.24934.8416-.2416 1.28042-.00807.43926.07395.87546.24107 1.28166.16712.4063.41574.774.73052 1.0804.30642.3148.67412.5634 1.08039.7306.40627.1671.84251.2491 1.28169.2411.4373.0064.8712-.0765 1.2753-.2435.4041-.1671.7699-.4149 1.0749-.7282zm2.1539-8.54133c.1074-.11208.2368-.20075.3801-.26047.1433-.05971.2974-.08916.4527-.08653.1552-.0022.3091.02746.4524.08715.1432.05968.2727.14812.3804.25985.1121.10758.2009.23701.2609.38025.0601.14324.0903.29729.0885.45261.0022.15539-.0277.30955-.0879.45285-.0601.1433-.1491.27266-.2615.37998-.1077.11174-.2372.20017-.3804.25986-.1433.05969-.2972.08935-.4524.08715-.1553.00263-.3094-.02682-.4527-.08654-.1433-.05971-.2727-.14839-.3801-.26047-.107-.09678-.193-.21447-.2527-.34577-.0597-.13131-.0918-.27346-.0944-.41767-.0079-.16542.0179-.33069.0759-.4858.0581-.15511.1471-.29682.2616-.41645z" fill="#fff"/></svg>