<svg xmlns="http://www.w3.org/2000/svg" width="209" height="71" viewBox="0 0 209 71" fill="none">
  <path d="M0 69.7625L0 1.14185L15.4873 1.14185L36.2164 54.4181H37.1695L57.9463 1.14185L73.3859 1.14185L73.3859 69.7625H62.4734L62.4734 18.8212H61.5203L41.6489 69.7625H31.7847L11.9133 18.8212L10.9602 18.8212L10.9602 69.7625H0Z" fill="#F1F4F1"/>
  <path d="M139.298 35.454C139.298 13.6288 152.355 0 172.417 0C192.193 0 200.913 12.2945 201.724 23.2548V24.6844L190.573 24.6844C190.001 17.3934 185.283 9.10177 172.512 9.10177C159.598 9.10177 151.068 19.2042 151.068 35.454C151.068 51.7037 159.598 61.8062 172.512 61.8062C185.236 61.8062 189.953 52.7998 190.811 45.5565H201.962V46.9861C200.866 57.8033 192.336 70.908 172.417 70.908C152.355 70.908 139.298 57.2792 139.298 35.454Z" fill="#F1F4F1"/>
  <path d="M138.344 60.9937V69.7619H130.434C127.956 69.7619 125.764 69.476 123.858 68.9041C122.015 68.2688 120.395 67.1569 118.997 65.5684L116.424 62.7092C111.087 67.7922 104.955 70.3337 98.0296 70.3337C91.5488 70.3337 86.2116 68.8088 82.0182 65.759C77.8882 62.7092 75.8232 58.3887 75.8232 52.7974C75.8232 49.1122 76.9352 45.6176 79.159 42.3137C81.4463 38.9462 85.1315 36.1505 90.2145 33.9267C87.9272 31.0675 86.3705 28.5895 85.5445 26.4928C84.7185 24.3325 84.3055 21.8228 84.3055 18.9636C84.3055 15.8503 85.1633 13.0546 86.8788 10.5766C88.5943 8.03513 90.9452 6.06546 93.9315 4.66763C96.9177 3.20627 100.285 2.47559 104.034 2.47559C107.211 2.47559 110.07 3.14273 112.612 4.47702C115.217 5.74777 117.25 7.52683 118.711 9.81418C120.236 12.1015 120.998 14.6748 120.998 17.534C120.998 21.2827 119.823 24.682 117.472 27.7318C115.121 30.7181 111.087 33.3866 105.368 35.7375L117.567 48.9851L127.479 33.7361L137.772 33.7361L123.286 55.2753L126.336 58.6111C127.162 59.5641 127.988 60.1995 128.814 60.5172C129.64 60.8349 130.656 60.9937 131.863 60.9937H138.344ZM103.462 10.2907C100.857 10.2907 98.7285 11.0849 97.0766 12.6734C95.4246 14.2618 94.5986 16.2632 94.5986 18.6777C94.5986 20.7109 94.9798 22.5217 95.7423 24.1101C96.5683 25.6986 98.0296 27.6682 100.126 30.0191C107.37 26.9693 110.991 22.9029 110.991 17.8199C110.991 15.5961 110.292 13.7853 108.895 12.3874C107.56 10.9896 105.749 10.2907 103.462 10.2907ZM98.5062 61.8515C102.954 61.8515 107.084 60.136 110.896 56.7049L95.2657 39.6451L95.0751 39.4545C91.8983 41.1064 89.6427 42.8855 88.3084 44.7916C87.0376 46.6342 86.4023 48.8898 86.4023 51.5584C86.4023 54.7988 87.5142 57.3403 89.738 59.1829C91.9618 60.9619 94.8845 61.8515 98.5062 61.8515Z" fill="#F1F4F1"/>
  <path d="M197.522 5.79356C197.522 4.71866 197.772 3.74395 198.27 2.86945C198.786 1.97673 199.48 1.27531 200.352 0.765187C201.224 0.255062 202.185 0 203.235 0C204.302 0 205.272 0.255062 206.144 0.765187C207.034 1.27531 207.728 1.96762 208.226 2.84212C208.742 3.71662 209 4.69133 209 5.76623C209 6.82292 208.742 7.78852 208.226 8.66302C207.728 9.53752 207.034 10.2298 206.144 10.74C205.272 11.2319 204.302 11.4778 203.235 11.4778C202.185 11.4778 201.224 11.2319 200.352 10.74C199.48 10.2298 198.786 9.54663 198.27 8.69034C197.772 7.81584 197.522 6.85025 197.522 5.79356ZM207.639 5.76623C207.639 4.90995 207.443 4.13566 207.052 3.44334C206.678 2.75103 206.153 2.21358 205.477 1.83098C204.818 1.43017 204.071 1.22976 203.235 1.22976C202.416 1.22976 201.669 1.43017 200.992 1.83098C200.334 2.21358 199.809 2.76014 199.418 3.47067C199.044 4.16298 198.857 4.93728 198.857 5.79356C198.857 6.63162 199.044 7.39681 199.418 8.08913C199.809 8.76322 200.334 9.30067 200.992 9.70148C201.669 10.0841 202.416 10.2754 203.235 10.2754C204.071 10.2754 204.818 10.0841 205.477 9.70148C206.153 9.30067 206.678 8.75411 207.052 8.0618C207.443 7.36948 207.639 6.6043 207.639 5.76623Z" fill="#F1F4F1"/>
  <path fill-rule="evenodd" clip-rule="evenodd" d="M205.938 4.98923V4.71973L205.937 4.71469C205.901 4.20697 205.685 3.66777 205.254 3.25505C204.82 2.84062 204.179 2.5625 203.307 2.5625C202.421 2.5625 201.678 2.87155 201.157 3.43758C200.638 4.0024 200.353 4.80973 200.353 5.78559C200.353 6.76145 200.638 7.56878 201.157 8.1336C201.678 8.69963 202.421 9.00868 203.307 9.00868C204.187 9.00868 204.828 8.71123 205.261 8.28053C205.691 7.85231 205.908 7.30064 205.957 6.80219L205.958 6.7953V6.52393H204.745L204.731 6.64796C204.697 6.9428 204.586 7.26622 204.366 7.51357C204.15 7.75672 203.818 7.93695 203.315 7.93695C202.807 7.93695 202.393 7.73535 202.102 7.37345C201.809 7.00851 201.633 6.46953 201.633 5.78559C201.633 5.10165 201.809 4.56267 202.102 4.19773C202.393 3.83583 202.807 3.63423 203.315 3.63423C203.824 3.63423 204.157 3.80191 204.369 4.02941C204.584 4.26018 204.688 4.5661 204.71 4.85981L204.72 4.98923H205.938ZM205.673 7.39466C205.749 7.19746 205.796 6.99683 205.816 6.8042L205.818 6.78838V6.66407H204.87C204.87 6.66412 204.87 6.66418 204.87 6.66424H205.818V6.78855C205.798 6.98595 205.751 7.19211 205.673 7.39466ZM200.753 4.34269C201.176 3.30671 202.09 2.7028 203.307 2.7028C204.988 2.7028 205.729 3.77189 205.797 4.72496V4.8491H205.798V4.72479L205.796 4.70897C205.72 3.75993 204.978 2.70263 203.307 2.70263C202.09 2.70263 201.176 3.30661 200.753 4.34269ZM201.701 4.6128C201.566 4.94257 201.493 5.33716 201.493 5.78559C201.493 7.19861 202.218 8.07709 203.315 8.07709C204.12 8.07709 204.548 7.64346 204.744 7.16204C204.548 7.64353 204.12 8.07726 203.315 8.07726C202.218 8.07726 201.493 7.19878 201.493 5.78576C201.493 5.33725 201.566 4.9426 201.701 4.6128Z" fill="#F1F4F1"/>
</svg>