<?xml version="1.0" encoding="UTF-8"?>
<svg version="1.1" xmlns="http://www.w3.org/2000/svg" width="2175" height="584">
<path d="M0 0 C11.00741911 35.83365366 11.36067821 71.12736517 -6.375 105.0625 C-22.26924399 134.19856413 -49.03762535 156.4707621 -80.875 165.875 C-114.31053337 175.25888668 -148.20413041 171.37147986 -178.89697266 155.2421875 C-182.48452524 153.12314088 -185.74886968 150.5978273 -189 148 C-188.57001709 147.40227783 -188.14003418 146.80455566 -187.69702148 146.1887207 C-180.61814297 136.21784039 -178.62407148 127.2949943 -180 115 C-181.47437595 109.94983872 -183.19712324 104.96784588 -186.79296875 101.04296875 C-187.19128906 100.36878906 -187.58960938 99.69460938 -188 99 C-186.87076273 94.63948372 -185.03595653 91.09175624 -182.68359375 87.2734375 C-182.01062256 86.17161133 -181.33765137 85.06978516 -180.64428711 83.93457031 C-179.14884112 81.51670951 -177.64574971 79.10364445 -176.14282227 76.69042969 C-175.35498296 75.42162643 -174.56780094 74.15241484 -173.78125 72.8828125 C-173.1850309 71.92151428 -173.1850309 71.92151428 -172.57676697 70.9407959 C-170.15815676 67.00245427 -167.88711735 63.01406536 -165.72080994 58.93167114 C-164.3287625 56.31382305 -162.89340701 53.72089177 -161.45510864 51.12823486 C-160.78255569 49.88688102 -160.13131737 48.63371457 -159.50314331 47.36932373 C-157.46908466 43.28870378 -155.50141103 39.95404973 -152 37 C-146.28107915 35.47236297 -141.73223205 35.58742099 -136 37 C-132.65773992 39.05883495 -130.97875124 41.46751831 -129 44.8125 C-128.22438721 45.97313965 -128.22438721 45.97313965 -127.43310547 47.15722656 C-126.40213129 48.70224118 -125.39085464 50.26061225 -124.40136719 51.83251953 C-123.14352043 53.77801841 -121.823389 55.59027346 -120.3828125 57.40234375 C-114.94095692 64.26586056 -114.94095692 64.26586056 -115.20703125 67.57421875 C-116 70 -116 70 -117.5625 73.5625 C-120.24613177 80.61699737 -119.95823666 88.18759126 -117.4375 95.25 C-113.79223554 103.16289114 -108.64362344 108.51487096 -100.67578125 112.09375 C-92.3908696 114.89973468 -83.86188949 114.71728709 -75.91015625 111.03125 C-69.0421018 107.12924593 -62.85822068 101.0651899 -60.4375 93.39453125 C-58.5438954 83.03042751 -59.78887992 74.57626971 -65.42578125 65.7734375 C-66.36952033 61.21524196 -63.76320605 58.43351901 -61.3125 54.6875 C-60.20105599 52.91666148 -59.09184472 51.14442046 -57.984375 49.37109375 C-57.35853516 48.37835449 -56.73269531 47.38561523 -56.08789062 46.36279297 C-52.40463774 40.43048179 -48.87595171 34.40615403 -45.32723999 28.39273071 C-44.08258425 26.28402687 -42.83640758 24.17623477 -41.58911133 22.0690918 C-41.1941748 21.40151855 -40.79923828 20.73394531 -40.39233398 20.04614258 C-39.62222444 18.75041036 -38.84799062 17.4571191 -38.06933594 16.16650391 C-36.50553996 13.57286575 -34.99453435 10.98913021 -33.63354492 8.2824707 C-32.484375 6.06640625 -32.484375 6.06640625 -30 3 C-26.99103862 2.14159785 -24.27447163 2.36886131 -21.1875 2.6875 C-13.31015535 3.31478226 -7.46512472 0 0 0 Z " fill="#4F0003" transform="translate(412,246)"/>
<path d="M0 0 C-0.77415887 3.91428641 -2.53423841 6.54302619 -4.74609375 9.8046875 C-7.77397795 15.10584301 -8.388448 20.23269352 -8.375 26.25 C-8.37258301 27.37498901 -8.37258301 27.37498901 -8.37011719 28.52270508 C-8.17058097 37.58693114 -4.98101901 43.57341967 0 51 C-4.98760373 59.43408003 -9.98848981 67.86007095 -15.00561523 76.27662659 C-17.58605205 80.60976603 -20.14787137 84.95306965 -22.69111633 89.30813599 C-24.21312574 91.90860688 -25.74803402 94.50130015 -27.28591919 97.09240723 C-28.00987022 98.31890649 -28.72807993 99.54881343 -29.44039917 100.78210449 C-30.43227438 102.49759451 -31.44610483 104.20033403 -32.4609375 105.90234375 C-33.30857666 107.34855103 -33.30857666 107.34855103 -34.17333984 108.82397461 C-36.39602463 111.47176792 -37.62859725 111.66804443 -41 112 C-41.8765625 112.31324219 -42.753125 112.62648438 -43.65625 112.94921875 C-47.32597238 113.90193514 -49.32190839 114.06630121 -53 113 C-57.80711281 108.61011353 -61.11506137 102.76668282 -64.53417969 97.28613281 C-67.03683448 93.38292505 -69.94524997 89.8107136 -72.8046875 86.1640625 C-74 84 -74 84 -73.79296875 81.96484375 C-73.53128906 81.31644531 -73.26960938 80.66804688 -73 80 C-72.75121094 79.34902344 -72.50242187 78.69804687 -72.24609375 78.02734375 C-71.97925781 77.33769531 -71.71242188 76.64804687 -71.4375 75.9375 C-68.32380121 66.51933187 -69.60400655 57.7919869 -74 49 C-77.90463277 42.7098621 -83.84955193 38.67012437 -90.8671875 36.39453125 C-101.41604114 34.44318653 -110.15472858 35.9188759 -119 42 C-125.16042868 47.10471006 -128.4361729 54.3167831 -129.3828125 62.1796875 C-129.65830785 69.9853892 -128.47788734 77.31687794 -123.71850586 83.72558594 C-123 86 -123 86 -124.27905273 88.99487305 C-124.98067302 90.17714071 -125.70032212 91.34881696 -126.43359375 92.51171875 C-126.81790558 93.14929108 -127.20221741 93.7868634 -127.59817505 94.4437561 C-128.86310964 96.53444303 -130.15002629 98.61063156 -131.4375 100.6875 C-132.31200733 102.12365538 -133.18496289 103.56075676 -134.05639648 104.9987793 C-135.83031925 107.92163581 -137.61242482 110.83924303 -139.40136719 113.75292969 C-141.80725878 117.67631867 -144.18084811 121.61811893 -146.5390625 125.5703125 C-146.88524124 126.15027481 -147.23141998 126.73023712 -147.58808899 127.32777405 C-148.57959166 128.98933007 -149.57104653 130.65091462 -150.5625 132.3125 C-151.77072804 134.33027048 -152.98023747 136.34727458 -154.19140625 138.36328125 C-154.68842041 139.19126221 -155.18543457 140.01924316 -155.69750977 140.87231445 C-156.75897087 142.60626638 -157.87226722 144.30840083 -159 146 C-161.54580761 146.11722137 -163.90573987 146.08379754 -166.4375 145.9375 C-172.93374699 145.72100719 -177.91989246 146.49687164 -183.9609375 149.125 C-186 150 -186 150 -188 150 C-199.30932175 117.18955666 -199.87561759 81.81279161 -184.703125 50.06640625 C-180.00844246 40.66038023 -174.77298156 32.06763998 -168 24 C-167.28199219 23.14277344 -166.56398437 22.28554687 -165.82421875 21.40234375 C-124.29242125 -26.32602744 -52.53761364 -35.02507576 0 0 Z " fill="#4F0003" transform="translate(366,188)"/>
<path d="M0 0 C1.21880859 -0.01224609 2.43761719 -0.02449219 3.69335938 -0.03710938 C5.43649414 -0.04000977 5.43649414 -0.04000977 7.21484375 -0.04296875 C8.28726318 -0.04707764 9.35968262 -0.05118652 10.46459961 -0.05541992 C13.0625 0.1875 13.0625 0.1875 15.0625 2.1875 C15.71890195 4.37606568 16.28287293 6.59261434 16.80249023 8.81762695 C16.96377411 9.49929428 17.12505798 10.18096161 17.29122925 10.88328552 C17.82474396 13.14589335 18.34792792 15.41076013 18.87109375 17.67578125 C19.24156842 19.25618384 19.61267684 20.83643799 19.98439026 22.41654968 C20.96451355 26.5907347 21.93589027 30.76690873 22.90551758 34.94354248 C23.8828899 39.14654451 24.86857947 43.34759349 25.85351562 47.54882812 C28.94720881 60.75616848 32.01821551 73.96868139 35.0625 87.1875 C36.51585094 84.46613455 37.50379807 81.91777674 38.24829102 78.92675781 C38.56533241 77.66908348 38.56533241 77.66908348 38.88877869 76.38600159 C39.11239578 75.48002731 39.33601288 74.57405304 39.56640625 73.640625 C40.06065835 71.67471041 40.55496391 69.70880926 41.04931641 67.74291992 C41.30658508 66.71266693 41.56385376 65.68241394 41.82891846 64.62094116 C45.60572583 49.51791039 49.42566598 34.42533633 53.61349487 19.43029785 C53.9947503 18.06516465 54.37361465 16.6993613 54.75003052 15.33288574 C55.26617931 13.46338862 55.79293384 11.59682906 56.3203125 9.73046875 C56.6105127 8.69946045 56.90071289 7.66845215 57.19970703 6.60620117 C58.0625 4.1875 58.0625 4.1875 60.0625 2.1875 C64.52211243 1.67341774 69.01414948 1.77069331 73.5 1.75 C75.38041992 1.70069336 75.38041992 1.70069336 77.29882812 1.65039062 C78.49830078 1.64330078 79.69777344 1.63621094 80.93359375 1.62890625 C82.03630615 1.61545166 83.13901855 1.60199707 84.27514648 1.58813477 C87.0625 2.1875 87.0625 2.1875 88.78295898 4.17163086 C90.42664358 8.04578385 91.58084043 11.93765507 92.6640625 16 C93.02112778 17.30556854 93.02112778 17.30556854 93.38540649 18.63751221 C94.16109586 21.48532524 94.92479368 24.33618472 95.6875 27.1875 C96.21962252 29.15595261 96.75185009 31.12437682 97.28417969 33.09277344 C102.2043727 51.37815015 106.72009379 69.75728746 111.0625 88.1875 C113.67560286 80.82111343 115.53056562 73.39525381 117.27734375 65.78125 C117.57435684 64.50254028 117.87136993 63.22383057 118.17738342 61.90637207 C118.96377781 58.52068374 119.74508059 55.13384127 120.52520752 51.7467041 C121.30749081 48.35389351 122.09432558 44.96213975 122.88085938 41.5703125 C123.18903296 40.24040113 123.49718942 38.9104858 123.80532837 37.58056641 C124.40676254 34.98508777 125.00872364 32.38973305 125.6109314 29.79443359 C126.86445397 24.38716107 128.11353901 18.97943195 129.32470703 13.5625 C129.50691299 12.75816528 129.68911896 11.95383057 129.87684631 11.12512207 C130.33635704 9.09429776 130.78878066 7.06187321 131.24047852 5.02929688 C132.0625 2.1875 132.0625 2.1875 134.0625 0.1875 C136.66040039 -0.05541992 136.66040039 -0.05541992 139.91015625 -0.04296875 C141.07224609 -0.04103516 142.23433594 -0.03910156 143.43164062 -0.03710938 C144.65044922 -0.02486328 145.86925781 -0.01261719 147.125 0 C148.95901367 0.0009668 148.95901367 0.0009668 150.83007812 0.00195312 C159.92238944 0.04738944 159.92238944 0.04738944 161.0625 1.1875 C160.93188995 7.35847076 159.41175297 13.22513802 157.67333984 19.10595703 C157.43084503 19.94814789 157.18835022 20.79033875 156.93850708 21.65805054 C156.14055999 24.42257626 155.33214138 27.18391617 154.5234375 29.9453125 C153.95810765 31.89499765 153.3933911 33.84486071 152.82925415 35.79489136 C151.34255855 40.92701724 149.84675377 46.05644598 148.34924316 51.1854248 C147.1466427 55.31007549 145.95060631 59.43661482 144.75489426 63.56326675 C138.9843734 83.47745795 133.17641151 103.37555802 127.0625 123.1875 C117.1625 123.1875 107.2625 123.1875 97.0625 123.1875 C94.87102245 118.8045449 93.44509881 115.53773766 92.20898438 110.9453125 C91.87854126 109.729646 91.54809814 108.51397949 91.2076416 107.26147461 C90.85693772 105.94521367 90.50648022 104.62888705 90.15625 103.3125 C89.78703945 101.94201492 89.41736135 100.57165573 89.04724121 99.20141602 C88.27340651 96.33113956 87.50393113 93.45974253 86.73779297 90.58740234 C85.76637475 86.94607391 84.78626565 83.30715992 83.80303192 79.66900635 C83.03827247 76.83664882 82.27726863 74.00329263 81.51741028 71.1696167 C81.15794853 69.83006009 80.79761879 68.49073603 80.43632507 67.15167236 C78.02779287 58.21040993 75.91771161 49.25887817 74.0625 40.1875 C71.18518692 48.20685001 69.15151122 56.40065953 67.07540894 64.65396118 C63.51251963 78.80444231 59.84075173 92.92238841 56 107 C55.80645935 107.71244873 55.6129187 108.42489746 55.41351318 109.15893555 C54.87072869 111.15485806 54.32476694 113.14987662 53.77734375 115.14453125 C53.46917725 116.26835205 53.16101074 117.39217285 52.84350586 118.55004883 C52.0625 121.1875 52.0625 121.1875 51.0625 123.1875 C41.1625 123.1875 31.2625 123.1875 21.0625 123.1875 C18.81628313 118.69506627 17.31640737 115.13559358 15.96875 110.40820312 C15.78096639 109.75568699 15.59318277 109.10317085 15.39970875 108.4308815 C14.78173661 106.278388 14.17213101 104.12361927 13.5625 101.96875 C13.12591576 100.44233162 12.68878593 98.91606919 12.25114441 97.38995361 C11.08767711 93.32750259 9.93126909 89.26307526 8.77642441 85.19816589 C7.58816217 81.01939087 6.39420518 76.84224458 5.20043945 72.66503906 C4.72558574 71.00323928 4.25074744 69.34143509 3.77592468 67.67962646 C3.5423847 66.86227776 3.30884472 66.04492905 3.06822777 65.20281219 C2.36509301 62.74071905 1.6628295 60.27837885 0.96076965 57.815979 C-1.58409145 48.89385501 -4.15171027 39.97918355 -6.76953125 31.078125 C-7.1698909 29.71361206 -7.1698909 29.71361206 -7.57833862 28.3215332 C-9.00009325 23.47799238 -9.00009325 23.47799238 -10.43530273 18.63842773 C-11.05236517 16.56786086 -11.66172981 14.49517525 -12.26953125 12.421875 C-12.59671143 11.32069336 -12.9238916 10.21951172 -13.26098633 9.08496094 C-13.90744914 6.31620574 -14.15459629 4.01642671 -13.9375 1.1875 C-11.29209403 -1.45790597 -3.56345815 0.00187847 0 0 Z " fill="#4F0003" transform="translate(1544.9375,245.8125)"/>
<path d="M0 0 C0.78971191 0.20520264 1.57942383 0.41040527 2.39306641 0.62182617 C12.70028183 3.45028183 12.70028183 3.45028183 15.8125 6.5625 C15.91702498 8.09512882 15.95213042 9.63254596 15.95967102 11.16871643 C15.96682632 12.16508118 15.97398163 13.16144592 15.98135376 14.18800354 C15.98404266 15.29071091 15.98673157 16.39341827 15.98950195 17.52954102 C15.99607315 18.6841684 16.00264435 19.83879578 16.00941467 21.02841187 C16.02922406 24.8744106 16.04083375 28.72036994 16.05078125 32.56640625 C16.05485678 33.88045881 16.0589323 35.19451138 16.06313133 36.54838371 C16.08221188 42.79759608 16.09642513 49.04679657 16.1047433 55.29603249 C16.11446431 62.4794974 16.14063539 69.66264992 16.18124419 76.84600502 C16.21161412 82.41226135 16.22623256 87.9784294 16.22952431 93.54476684 C16.23185535 96.86089603 16.242587 100.17662071 16.26598549 103.49267769 C16.52079145 142.0329857 16.52079145 142.0329857 2.86328125 156.6484375 C-8.58014433 167.30498706 -23.93450602 169.90580692 -39.10546875 169.71484375 C-54.30593304 168.96349 -72.07191591 165.89533338 -83.375 154.6875 C-83.973125 153.98625 -84.57125 153.285 -85.1875 152.5625 C-83.8808683 147.95526217 -82.07579698 144.6818179 -79.1875 140.875 C-78.48625 139.94300781 -77.785 139.01101563 -77.0625 138.05078125 C-76.134375 136.81908203 -76.134375 136.81908203 -75.1875 135.5625 C-74.5275 134.5725 -73.8675 133.5825 -73.1875 132.5625 C-69.10041338 131.93581338 -67.00586361 133.01691969 -63.6875 135.3125 C-52.55355344 142.23227238 -41.02652633 143.85423131 -28.1875 142.5625 C-22.81928801 141.12017868 -19.10475912 138.31655189 -16.1875 133.5625 C-12.9034302 127.33556246 -12.84348322 121.49380109 -13.1875 114.5625 C-13.82816406 114.76746094 -14.46882812 114.97242188 -15.12890625 115.18359375 C-15.99386719 115.45300781 -16.85882812 115.72242188 -17.75 116 C-18.59691406 116.26683594 -19.44382812 116.53367187 -20.31640625 116.80859375 C-36.19498885 120.9780719 -53.91198956 119.23208509 -68.36328125 111.41796875 C-80.04761668 103.74153815 -85.58997278 93.78180843 -88.5612793 80.44897461 C-89.64493489 73.7235503 -89.66919514 67.02511719 -89.63354492 60.2253418 C-89.62504593 57.76330456 -89.65388768 55.30360619 -89.68554688 52.84179688 C-89.75319638 37.58697659 -87.92370767 22.03650639 -77.15234375 10.35546875 C-56.74506573 -9.04404245 -25.29402385 -6.57978146 0 0 Z M-56.1875 29.5625 C-61.49935681 37.08937093 -60.83033015 46.1314003 -60.76391602 54.92749023 C-60.75004656 57.49139266 -60.78419364 60.05163861 -60.82226562 62.61523438 C-60.86397549 71.4250649 -60.82276057 79.26245508 -55.1875 86.5625 C-49.4870795 92.16605487 -42.79242505 93.60356575 -35 93.875 C-27.54228533 93.72917876 -17.73367271 93.04496408 -12.1875 87.5625 C-11.6057967 84.68139421 -11.6057967 84.68139421 -11.73339844 81.34692383 C-11.73370056 80.0658223 -11.73400269 78.78472076 -11.73431396 77.46479797 C-11.75474061 76.06636943 -11.7756046 74.66794721 -11.796875 73.26953125 C-11.80433641 71.83893117 -11.81002982 70.40832086 -11.81402588 68.97770691 C-11.82929043 65.21436285 -11.86857824 61.45163742 -11.9128418 57.6885376 C-11.95377743 53.84778207 -11.97203318 50.00692647 -11.9921875 46.16601562 C-12.03507263 38.63122855 -12.10333272 31.09695099 -12.1875 23.5625 C-13.92236813 23.23202249 -15.6580444 22.90578579 -17.39404297 22.58129883 C-18.36050751 22.39916336 -19.32697205 22.21702789 -20.32272339 22.02937317 C-24.335116 21.37547281 -28.25413013 21.21911915 -32.3125 21.25 C-33.08948242 21.25491455 -33.86646484 21.2598291 -34.66699219 21.26489258 C-43.3355443 21.44237763 -50.0587084 23.00611829 -56.1875 29.5625 Z " fill="#4F0003" transform="translate(921.1875,247.4375)"/>
<path d="M0 0 C1.1653125 -0.00128906 2.330625 -0.00257813 3.53125 -0.00390625 C4.7584375 -0.00003906 5.985625 0.00382813 7.25 0.0078125 C9.09078125 0.00201172 9.09078125 0.00201172 10.96875 -0.00390625 C12.71671875 -0.00197266 12.71671875 -0.00197266 14.5 0 C15.57765625 0.00112793 16.6553125 0.00225586 17.765625 0.00341797 C20.25 0.1328125 20.25 0.1328125 21.25 1.1328125 C21.34295815 2.57571037 21.36746513 4.02311035 21.36352539 5.46899414 C21.36344986 6.3898732 21.36337433 7.31075226 21.36329651 8.25953674 C21.35813522 9.26056931 21.35297394 10.26160187 21.34765625 11.29296875 C21.3462413 12.31257187 21.34482635 13.33217499 21.34336853 14.38267517 C21.33775097 17.65358357 21.3251955 20.92442463 21.3125 24.1953125 C21.30748726 26.40690006 21.30292396 28.61848868 21.29882812 30.83007812 C21.28777584 36.26434607 21.27102063 41.69857447 21.25 47.1328125 C22.25667725 46.81993286 22.25667725 46.81993286 23.28369141 46.50073242 C24.17233887 46.22849854 25.06098633 45.95626465 25.9765625 45.67578125 C26.85393066 45.40531982 27.73129883 45.1348584 28.63525391 44.85620117 C44.29045433 40.52507523 61.93931736 42.79504038 76.25 50.1328125 C87.10532574 56.74834771 93.73455419 66.50788589 96.87402344 78.77050781 C98.82278948 87.58910048 98.64486457 96.32280705 98.578125 105.3046875 C98.57506073 107.12217044 98.5731897 108.93965574 98.57244873 110.75714111 C98.56788028 114.53577892 98.55357704 118.31419947 98.53125 122.09277344 C98.5027259 126.94515388 98.49201043 131.79736587 98.4875679 136.64982224 C98.4834253 140.38830251 98.47362155 144.12674859 98.46169281 147.86521149 C98.4559871 149.65625994 98.45122939 151.44731167 98.44742584 153.23836517 C98.44059207 155.72505078 98.4269801 158.21159979 98.41113281 160.69824219 C98.41001495 161.44098389 98.40889709 162.18372559 98.40774536 162.94897461 C98.36470686 168.01810564 98.36470686 168.01810564 97.25 169.1328125 C95.33541718 169.23253036 93.41717683 169.26361839 91.5 169.265625 C90.3346875 169.26691406 89.169375 169.26820313 87.96875 169.26953125 C86.7415625 169.26566406 85.514375 169.26179687 84.25 169.2578125 C83.0228125 169.26167969 81.795625 169.26554688 80.53125 169.26953125 C78.78328125 169.26759766 78.78328125 169.26759766 77 169.265625 C75.92234375 169.26449707 74.8446875 169.26336914 73.734375 169.26220703 C71.25 169.1328125 71.25 169.1328125 70.25 168.1328125 C70.14155158 165.83488329 70.10367711 163.53361293 70.09228516 161.2331543 C70.08720444 160.51101242 70.08212372 159.78887054 70.07688904 159.04484558 C70.06615818 157.46956803 70.05754874 155.89427497 70.05076981 154.31897545 C70.03898775 151.81615131 70.0195302 149.31350029 69.99765015 146.81074524 C69.93605789 139.69184251 69.88225252 132.5729513 69.84863281 125.45385742 C69.82752625 121.10182222 69.79208211 116.7500925 69.74787521 112.39823341 C69.73382331 110.74749192 69.72501753 109.09669626 69.72182083 107.44589806 C70.04288403 91.18055677 70.04288403 91.18055677 63.9375 76.5703125 C57.63392136 70.85311327 51.52383842 69.94172793 43.3125 69.8828125 C42.62865234 69.8621875 41.94480469 69.8415625 41.24023438 69.8203125 C36.44230656 69.78532305 32.11671949 70.5384651 27.44702148 71.65332031 C26.28420151 71.928797 25.12138153 72.20427368 23.92332458 72.48809814 C23.04112747 72.70085388 22.15893036 72.91360962 21.25 73.1328125 C21.25222061 74.32075912 21.25444122 75.50870575 21.25672913 76.73265076 C21.27695892 87.90189236 21.29197135 99.07113027 21.30181217 110.24038601 C21.30704141 115.98326312 21.3141398 121.72612551 21.32543945 127.46899414 C21.33626687 133.00621245 21.34227652 138.54341654 21.34487724 144.08064461 C21.34673176 146.19825527 21.35035286 148.31586512 21.35573006 150.43346977 C21.36293856 153.38852524 21.36399102 156.34352121 21.36352539 159.29858398 C21.36712067 160.18330887 21.37071594 161.06803375 21.37442017 161.97956848 C21.36405216 168.01876034 21.36405216 168.01876034 20.25 169.1328125 C18.33541718 169.23253036 16.41717683 169.26361839 14.5 169.265625 C13.3346875 169.26691406 12.169375 169.26820313 10.96875 169.26953125 C9.7415625 169.26566406 8.514375 169.26179687 7.25 169.2578125 C6.0228125 169.26167969 4.795625 169.26554688 3.53125 169.26953125 C2.3659375 169.26824219 1.200625 169.26695312 0 169.265625 C-1.07765625 169.26449707 -2.1553125 169.26336914 -3.265625 169.26220703 C-5.75 169.1328125 -5.75 169.1328125 -6.75 168.1328125 C-6.84913289 165.98351733 -6.87632375 163.83090132 -6.87698364 161.67932129 C-6.87932363 160.65616813 -6.87932363 160.65616813 -6.88171089 159.61234522 C-6.88572296 157.30990135 -6.88253046 155.00752257 -6.87939453 152.70507812 C-6.88074848 151.06125347 -6.88252838 149.41742912 -6.88470459 147.77360535 C-6.88927968 143.29645996 -6.88748905 138.81933751 -6.8843255 134.3421917 C-6.88180229 129.6674582 -6.88413933 124.99272673 -6.88571167 120.31799316 C-6.88753348 112.46606085 -6.88512676 104.61413792 -6.88037109 96.76220703 C-6.87492845 87.67076251 -6.8766911 78.57934042 -6.8821975 69.48789644 C-6.88672831 61.69684039 -6.88737934 53.90579111 -6.88475883 46.11473417 C-6.88319588 41.45505118 -6.88300279 36.79537874 -6.88629532 32.13569641 C-6.88917356 27.75600949 -6.88719921 23.37635162 -6.88140106 18.99666786 C-6.88007321 17.38453024 -6.880468 15.7723902 -6.88266373 14.16025352 C-6.88537427 11.96890336 -6.88199532 9.77764776 -6.87698364 7.58630371 C-6.8764181 5.74236149 -6.8764181 5.74236149 -6.87584114 3.86116791 C-6.65022041 -1.03050375 -4.34937713 0.00455228 0 0 Z " fill="#4F0003" transform="translate(961.75,199.8671875)"/>
<path d="M0 0 C14.56950673 -0.51879549 28.90458675 2.86818079 40.5078125 11.96875 C49.01901607 19.94153194 54.38119425 31.47857012 54.76220703 43.10449219 C54.76876167 44.6373562 54.76960109 46.17025213 54.765625 47.703125 C54.76658173 48.51493225 54.76753845 49.3267395 54.76852417 50.16314697 C54.76920235 51.87097247 54.76737338 53.5788006 54.76318359 55.28662109 C54.75780237 57.91119084 54.763155 60.53559161 54.76953125 63.16015625 C54.76887095 64.82031288 54.76759078 66.4804694 54.765625 68.140625 C54.76764923 68.92910828 54.76967346 69.71759155 54.77175903 70.52996826 C54.74778215 76.04128035 54.74778215 76.04128035 53.6328125 77.15625 C51.33227415 77.25068335 49.02879077 77.27367128 46.72631836 77.26977539 C46.00440811 77.26992142 45.28249786 77.27006744 44.53871155 77.2702179 C42.14166303 77.26951869 39.74469127 77.26172595 37.34765625 77.25390625 C35.68998761 77.2520421 34.03231843 77.25061818 32.37464905 77.24961853 C28.00327036 77.24579312 23.63192469 77.23596265 19.26055908 77.22491455 C14.80326789 77.21470092 10.34597139 77.21012101 5.88867188 77.20507812 C-2.86329643 77.1943404 -11.61523786 77.17726371 -20.3671875 77.15625 C-20.23219271 78.90929682 -20.09021224 80.66180658 -19.9453125 82.4140625 C-19.86700195 83.39004395 -19.78869141 84.36602539 -19.70800781 85.37158203 C-18.93649415 91.67522448 -16.37926847 96.14658523 -11.3671875 100.15625 C-2.20938003 105.16712579 9.64731243 104.32566768 19.4453125 101.53125 C24.72309217 99.70861304 29.44683312 97.2524934 34.1953125 94.328125 C36.97210324 92.99312945 38.5918607 92.70035772 41.6328125 93.15625 C43.22265625 94.37109375 43.22265625 94.37109375 44.5703125 96.09375 C45.31474609 97.03734375 45.31474609 97.03734375 46.07421875 98 C48.70894789 101.64503882 51.21004145 105.36744847 53.6328125 109.15625 C49.97816434 117.58727001 39.6681308 121.8338652 31.6328125 125.15625 C13.24753789 131.76760291 -7.85999684 131.6357287 -25.6171875 123.40625 C-37.54369329 117.05375083 -44.35983559 108.02195877 -48.3671875 95.15625 C-49.37885509 89.52653979 -49.54286429 84.0388912 -49.5703125 78.33984375 C-49.57886261 76.93956688 -49.57886261 76.93956688 -49.58758545 75.51100159 C-49.59699667 73.54014199 -49.60355393 71.56926694 -49.60742188 69.59838867 C-49.61707894 66.62715131 -49.64811968 63.6566209 -49.6796875 60.68554688 C-49.77498251 43.66378871 -48.6837848 27.10795402 -36.4296875 14.03515625 C-26.15473454 4.67482979 -13.61945751 0.89897409 0 0 Z M-14.671875 31.2734375 C-21.01144671 38.31416 -20.3671875 45.82063477 -20.3671875 55.15625 C-4.5271875 55.15625 11.3128125 55.15625 27.6328125 55.15625 C27.33779067 41.70166326 27.33779067 41.70166326 20.90625 31.4140625 C10.9037919 23.08532249 -4.59193753 22.82587857 -14.671875 31.2734375 Z " fill="#4F0003" transform="translate(1959.3671875,242.84375)"/>
<path d="M0 0 C14.91794487 -0.47993388 30.32747562 2.49276266 41.6640625 12.78125 C53.65603376 25.8724853 53.58490655 41.44313548 53.484375 58.0703125 C53.48063878 59.8944788 53.47779469 61.71864713 53.47579956 63.54281616 C53.46821105 68.31359526 53.44860431 73.08425004 53.4263916 77.85498047 C53.40582946 82.73533446 53.39677579 87.6157088 53.38671875 92.49609375 C53.36535335 102.04953339 53.33127602 111.6028813 53.2890625 121.15625 C45.64171628 124.48816316 45.64171628 124.48816316 41.51171875 125.2890625 C40.24618164 125.53849609 40.24618164 125.53849609 38.95507812 125.79296875 C38.09591797 125.95410156 37.23675781 126.11523438 36.3515625 126.28125 C35.49626953 126.45011719 34.64097656 126.61898437 33.75976562 126.79296875 C10.09093788 131.37869129 -16.72502345 132.59871982 -37.7109375 119.15625 C-45.84779582 112.34605336 -49.48895137 104.13395536 -50.5859375 93.71875 C-51.09961379 82.79028701 -49.22253976 73.28887787 -41.76953125 64.99609375 C-28.94023982 52.71761269 -11.98261414 50.74014455 5.03198242 50.86206055 C11.90692332 51.01561185 18.54341405 51.77757733 25.2890625 53.15625 C24.11360732 41.55963247 24.11360732 41.55963247 19.2890625 31.15625 C11.65294912 25.23826213 0.43613961 26.43416056 -8.7109375 27.15625 C-14.71513557 28.12550106 -20.4604133 29.9123135 -25.78515625 32.85546875 C-28.7109375 34.15625 -28.7109375 34.15625 -31.25 34.328125 C-35.21758328 32.43879963 -36.87364916 29.09123468 -39.0859375 25.40625 C-39.54871094 24.68953125 -40.01148438 23.9728125 -40.48828125 23.234375 C-42.37107967 20.17693518 -43.66126313 17.98223081 -43.87890625 14.36328125 C-40.96488107 8.85684571 -32.37988338 6.37345637 -26.64306641 4.47021484 C-17.85140892 1.85782476 -9.13700312 0.52662842 0 0 Z M-19.7109375 81.15625 C-22.15350782 85.04215733 -21.89375074 88.61656444 -21.23046875 93.01171875 C-20.2384706 97.10650812 -18.39345523 99.01454154 -14.9609375 101.34375 C-3.20910246 107.38755088 13.09524256 104.37330817 25.2890625 102.15625 C25.2890625 93.57625 25.2890625 84.99625 25.2890625 76.15625 C1.29564681 71.70883388 1.29564681 71.70883388 -19.7109375 81.15625 Z " fill="#4F0003" transform="translate(1763.7109375,242.84375)"/>
<path d="M0 0 C0.83660156 0.62003906 1.67320313 1.24007813 2.53515625 1.87890625 C5.08246937 4.0709681 6.73859979 6.12336162 8.5625 8.9375 C9.39974609 10.18853516 9.39974609 10.18853516 10.25390625 11.46484375 C16.48117453 24.07262405 16.62644507 35.79024221 16.52148438 49.62890625 C16.50004512 52.99292089 16.5213608 56.35480029 16.546875 59.71875 C16.56918608 76.5153422 15.188278 89.91530463 3.4375 102.8125 C2.633125 103.534375 1.82875 104.25625 1 105 C-0.0828125 105.99 -0.0828125 105.99 -1.1875 107 C-16.14510357 117.6365181 -34.53954745 119.03927203 -52.34326172 116.69091797 C-60.79284332 115.16824308 -68.07714494 112.02444874 -75 107 C-75.63292969 106.56042969 -76.26585937 106.12085938 -76.91796875 105.66796875 C-85.18839681 99.33278434 -89.7659867 89.9774162 -92 80 C-92.41068435 75.95702144 -92.44476927 71.94830116 -92.43359375 67.88671875 C-92.4388356 66.7553096 -92.44407745 65.62390045 -92.44947815 64.45820618 C-92.45586763 62.07737036 -92.45460151 59.69650284 -92.44604492 57.31567383 C-92.43754808 53.70791308 -92.4663214 50.10174498 -92.49804688 46.49414062 C-92.55119916 29.55813747 -91.84172863 16.1481115 -80 3 C-59.22600373 -17.08913925 -22.45123526 -16.9443285 0 0 Z M-56.875 19.4375 C-57.57625 20.283125 -58.2775 21.12875 -59 22 C-59.556875 22.61875 -60.11375 23.2375 -60.6875 23.875 C-64.19278635 29.55022552 -64.30805693 35.64633376 -64.30078125 42.1171875 C-64.30506638 42.9737796 -64.3093515 43.8303717 -64.31376648 44.71292114 C-64.31948262 46.5164502 -64.32003019 48.3200023 -64.31567383 50.12353516 C-64.31251718 52.86010706 -64.33599529 55.59559289 -64.36132812 58.33203125 C-64.36360197 60.09374865 -64.36430422 61.85546893 -64.36328125 63.6171875 C-64.372491 64.42372772 -64.38170074 65.23026794 -64.39118958 66.06124878 C-64.33868852 72.61509534 -63.31029249 79.10488452 -59.1328125 84.33984375 C-51.26874675 90.59743692 -44.17384387 92.72273208 -34 92 C-26.84585972 91.04044638 -21.69938229 88.99931365 -16.75 83.5 C-12.22053949 77.02934212 -11.84430054 70.86232938 -11.83203125 63.07421875 C-11.82870285 62.32719193 -11.82537445 61.5801651 -11.82194519 60.8105011 C-11.81690485 59.2363852 -11.81453597 57.66225872 -11.81469727 56.08813477 C-11.81251607 53.70505771 -11.79434431 51.32244817 -11.77539062 48.93945312 C-11.52501168 34.04723003 -11.52501168 34.04723003 -18 21 C-23.88458569 15.27887502 -29.9722514 13.81383132 -37.9375 13.625 C-45.32953089 13.80703074 -51.14735954 14.581457 -56.875 19.4375 Z " fill="#4F0003" transform="translate(1352,255)"/>
<path d="M0 0 C9.31595078 11.60136074 12.17224163 25.37968958 12.12939453 39.94482422 C12.13202301 41.06829506 12.13202301 41.06829506 12.13470459 42.21446228 C12.13906466 44.66122839 12.13620772 47.10792081 12.1328125 49.5546875 C12.13348679 51.26482151 12.13445787 52.97495543 12.13571167 54.68508911 C12.13718034 58.25393596 12.13505927 61.82275765 12.13037109 65.39160156 C12.12464825 69.97161271 12.12797412 74.55156558 12.13394356 79.13157463 C12.1375495 82.65563398 12.13641088 86.1796794 12.13381577 89.70373917 C12.13314793 91.39348482 12.13396993 93.08323173 12.13629532 94.77297592 C12.13882517 97.12586601 12.13497772 99.47866007 12.12939453 101.83154297 C12.13141876 102.53179092 12.13344299 103.23203888 12.13552856 103.95350647 C12.11427015 108.77145969 12.11427015 108.77145969 11 111 C2.09 111 -6.82 111 -16 111 C-17.49479432 108.01041136 -17.15295044 104.94290226 -17.15771484 101.66381836 C-17.16279556 100.90745087 -17.16787628 100.15108337 -17.17311096 99.37179565 C-17.18382568 97.72559206 -17.19244153 96.0793738 -17.19923019 94.43314934 C-17.2110187 91.82185656 -17.23047477 89.21072921 -17.25234985 86.59950256 C-17.31394344 79.17356944 -17.36787394 71.74765032 -17.40136719 64.3215332 C-17.42240076 59.78033191 -17.45778094 55.23942751 -17.50212479 50.69839668 C-17.51622505 48.97260617 -17.52499364 47.24676307 -17.52817917 45.52091789 C-17.21762783 30.95632852 -17.21762783 30.95632852 -23.3125 18.125 C-30.15397164 12.71546428 -36.08797366 11.83273304 -44.5625 11.875 C-45.31080078 11.87113281 -46.05910156 11.86726563 -46.83007812 11.86328125 C-51.18409723 11.87067975 -55.46895903 12.09799744 -59.80444336 12.50830078 C-61.26991859 12.64572189 -61.26991859 12.64572189 -62.76499939 12.78591919 C-63.50254959 12.85656586 -64.24009979 12.92721252 -65 13 C-64.99777939 14.21300278 -64.99555878 15.42600555 -64.99327087 16.67576599 C-64.97304128 28.08046604 -64.95802874 39.48516248 -64.94818783 50.88987637 C-64.94295854 56.75382164 -64.93586006 62.61775249 -64.92456055 68.48168945 C-64.9137333 74.13561712 -64.90772351 79.78953087 -64.90512276 85.44346809 C-64.90326821 87.6057361 -64.89964705 89.76800331 -64.89426994 91.93026543 C-64.88706167 94.94758657 -64.88600897 97.96484943 -64.88647461 100.98217773 C-64.88287933 101.8856041 -64.87928406 102.78903046 -64.87557983 103.71983337 C-64.88594784 109.88594784 -64.88594784 109.88594784 -66 111 C-67.99964982 111.08758003 -70.0023611 111.10696576 -72.00390625 111.09765625 C-73.82631836 111.09282227 -73.82631836 111.09282227 -75.68554688 111.08789062 C-76.96494141 111.07951172 -78.24433594 111.07113281 -79.5625 111.0625 C-80.84576172 111.05798828 -82.12902344 111.05347656 -83.45117188 111.04882812 C-86.63416022 111.03699545 -89.81705762 111.02051068 -93 111 C-94.18205948 108.63588104 -94.13077547 107.20950219 -94.14044189 104.57241821 C-94.14615204 103.64147842 -94.15186218 102.71053864 -94.15774536 101.75138855 C-94.15886322 100.7269313 -94.15998108 99.70247406 -94.16113281 98.64697266 C-94.16609772 97.57045944 -94.17106262 96.49394623 -94.17617798 95.3848114 C-94.19082481 91.81122202 -94.19760558 88.23767701 -94.203125 84.6640625 C-94.20887409 82.18785602 -94.21463185 79.71164956 -94.22039795 77.23544312 C-94.23091493 72.03847038 -94.23675313 66.84151314 -94.24023438 61.64453125 C-94.244936 54.97716123 -94.26975455 48.31002405 -94.29820633 41.64270973 C-94.31680626 36.52641191 -94.32203689 31.41016347 -94.32357025 26.29383469 C-94.32660296 23.83539082 -94.33465216 21.37694795 -94.34775543 18.91853714 C-94.36476139 15.48280457 -94.36294888 12.04757369 -94.35644531 8.61181641 C-94.3656601 7.59140762 -94.37487488 6.57099884 -94.3843689 5.51966858 C-94.37879974 4.58308914 -94.37323059 3.6465097 -94.36749268 2.68154907 C-94.36895924 1.86928171 -94.3704258 1.05701435 -94.3719368 0.22013283 C-93.90237655 -2.58272544 -92.92299277 -3.93155593 -91 -6 C-63.10183901 -18.62570619 -24.20596671 -20.87243765 0 0 Z " fill="#4F0003" transform="translate(654,258)"/>
<path d="M0 0 C1.09183594 0.4434375 2.18367188 0.886875 3.30859375 1.34375 C6 3 6 3 7.1796875 5.171875 C6.89750981 9.6131065 4.56089399 12.61901592 2.125 16.25 C1.65191406 16.9821875 1.17882813 17.714375 0.69140625 18.46875 C-2.72544643 23.72544643 -2.72544643 23.72544643 -4 25 C-9.79769749 24.47293659 -14.96757427 22.7745866 -20.39453125 20.81640625 C-31.10415036 17.06914822 -42.46148886 16.43395404 -53 21 C-56.32300878 23.67461682 -57.80851285 25.56384637 -58.375 29.8125 C-58.2541125 33.1253873 -58.2541125 33.1253873 -56 35.6875 C-49.16991122 40.9523601 -40.62786542 42.05039393 -32.37258911 43.81713867 C-2.50837574 50.28847103 -2.50837574 50.28847103 6 62 C11.7416367 71.42762568 12.30927527 81.5247459 10.421875 92.30078125 C7.66906537 101.94812774 1.65749447 108.85333702 -6.625 114.375 C-17.71498945 120.27061467 -29.36780724 121.60721549 -41.73828125 121.49609375 C-43.07968728 121.49624931 -44.42109374 121.49774768 -45.76249695 121.50050354 C-48.53645344 121.50187042 -51.30988191 121.48960161 -54.08374023 121.46655273 C-57.64031561 121.43780753 -61.1960406 121.44102466 -64.75268269 121.45364285 C-68.16463947 121.4622381 -71.57633903 121.44718871 -74.98828125 121.43359375 C-76.90366447 121.43799721 -76.90366447 121.43799721 -78.85774231 121.44248962 C-80.03044174 121.42980545 -81.20314117 121.41712128 -82.41137695 121.40405273 C-83.4453511 121.39864975 -84.47932526 121.39324677 -85.54463196 121.38768005 C-86.35490341 121.25974564 -87.16517487 121.13181122 -88 121 C-90.15159508 117.77260738 -90.24840937 116.90082021 -90.23046875 113.18359375 C-90.22853516 112.25482422 -90.22660156 111.32605469 -90.22460938 110.36914062 C-90.21236328 109.40169922 -90.20011719 108.43425781 -90.1875 107.4375 C-90.18685547 106.46619141 -90.18621094 105.49488281 -90.18554688 104.49414062 C-90.14043257 97.28086515 -90.14043257 97.28086515 -89 95 C-88.32285446 95.00888245 -87.64570892 95.01776489 -86.94804382 95.0269165 C-79.85827125 95.11586395 -72.76865892 95.17593021 -65.6784668 95.21972656 C-63.03745071 95.23975996 -60.39647851 95.26699451 -57.75561523 95.30175781 C-53.94503909 95.350639 -50.13505279 95.37305267 -46.32421875 95.390625 C-44.5719825 95.42159271 -44.5719825 95.42159271 -42.78434753 95.45318604 C-35.36949286 95.45518563 -28.57174831 94.6879862 -22 91 C-19.6319201 88.31492982 -18.56953546 86.60215497 -18.5625 83 C-18.53349609 82.01 -18.53349609 82.01 -18.50390625 81 C-19.2222989 78.10380285 -20.77835489 76.95309721 -23 75 C-30.29234835 71.4008951 -38.41859226 69.89170731 -46.3125 68.1875 C-59.85211319 65.09829227 -74.1631182 60.93305637 -82.25 48.625 C-82.96929688 47.56152344 -82.96929688 47.56152344 -83.703125 46.4765625 C-88.23250764 37.82707879 -88.59983487 26.45960622 -85.9375 17.125 C-82.02191035 7.45440417 -74.73121318 1.0670039 -65.40234375 -3.18359375 C-44.00866814 -11.58715266 -20.70630985 -9.14087433 0 0 Z " fill="#4F0003" transform="translate(1237,251)"/>
<path d="M0 0 C1.09183594 0.4434375 2.18367187 0.886875 3.30859375 1.34375 C6 3 6 3 7.1796875 5.171875 C6.89750981 9.6131065 4.56089399 12.61901592 2.125 16.25 C1.65191406 16.9821875 1.17882812 17.714375 0.69140625 18.46875 C-2.72544643 23.72544643 -2.72544643 23.72544643 -4 25 C-8.58766015 25.35748001 -11.55839886 24.57407093 -15.6875 22.625 C-27.04554331 17.66901819 -38.97067232 16.13490873 -50.86328125 20.07421875 C-54.38570376 21.60038719 -56.30866467 23.61732934 -58 27 C-58.52199547 30.91496601 -58.38986135 32.47612381 -56 35.6875 C-49.16991122 40.9523601 -40.62786542 42.05039393 -32.37258911 43.81713867 C-2.53000768 50.28378357 -2.53000768 50.28378357 6 62 C11.73765549 71.26170932 12.32517185 81.59515457 10.421875 92.23046875 C7.66410346 101.92027512 1.69682663 108.82711558 -6.625 114.375 C-23.57302565 123.46906254 -45.74844789 123.71475818 -64.015625 118.41015625 C-71.04144518 116.08158874 -77.56279737 112.61165631 -84 109 C-84.95390625 108.50628906 -85.9078125 108.01257813 -86.890625 107.50390625 C-89 106 -89 106 -89.75146484 104.17431641 C-90.23722724 99.92461118 -87.40309067 96.40826521 -85.375 92.8125 C-84.71564453 91.56436523 -84.71564453 91.56436523 -84.04296875 90.29101562 C-83.60339844 89.50017578 -83.16382813 88.70933594 -82.7109375 87.89453125 C-82.31181152 87.17112549 -81.91268555 86.44771973 -81.50146484 85.70239258 C-79.47492435 83.40465813 -78.01477673 83.19397401 -75 83 C-71.9765625 84.51171875 -71.9765625 84.51171875 -68.625 86.6875 C-57.81548551 93.2890814 -45.73968672 96.61261857 -33 95 C-25.94507177 93.30163075 -25.94507177 93.30163075 -20.22265625 89.109375 C-18.91660105 86.85611683 -18.56754147 85.58123477 -18.5625 83 C-18.53349609 82.01 -18.53349609 82.01 -18.50390625 81 C-19.2222989 78.10380285 -20.77835489 76.95309721 -23 75 C-30.29234835 71.4008951 -38.41859226 69.89170731 -46.3125 68.1875 C-59.85211319 65.09829227 -74.1631182 60.93305637 -82.25 48.625 C-82.96929688 47.56152344 -82.96929688 47.56152344 -83.703125 46.4765625 C-88.23250764 37.82707879 -88.59983487 26.45960622 -85.9375 17.125 C-82.02191035 7.45440417 -74.73121318 1.0670039 -65.40234375 -3.18359375 C-44.00866814 -11.58715266 -20.70630985 -9.14087433 0 0 Z " fill="#4F0003" transform="translate(764,251)"/>
<path d="M0 0 C0.95841797 -0.00128906 1.91683594 -0.00257813 2.90429688 -0.00390625 C3.89365234 -0.00003906 4.88300781 0.00382813 5.90234375 0.0078125 C6.89556641 0.00394531 7.88878906 0.00007812 8.91210938 -0.00390625 C9.86923828 -0.00261719 10.82636719 -0.00132812 11.8125 0 C12.68140869 0.00112793 13.55031738 0.00225586 14.44555664 0.00341797 C16.7433709 0.12759881 18.67001183 0.36741724 20.83984375 1.1328125 C22.05842482 3.56997465 21.9690995 5.16555307 21.97265625 7.88671875 C21.97458984 9.29147461 21.97458984 9.29147461 21.9765625 10.72460938 C21.97269531 11.70494141 21.96882813 12.68527344 21.96484375 13.6953125 C21.97064453 15.17161133 21.97064453 15.17161133 21.9765625 16.67773438 C21.97527344 17.61294922 21.97398438 18.54816406 21.97265625 19.51171875 C21.97152832 20.3735376 21.97040039 21.23535645 21.96923828 22.12329102 C21.83984375 24.1328125 21.83984375 24.1328125 20.83984375 25.1328125 C19.50701011 25.24105633 18.16910252 25.28852758 16.83203125 25.30859375 C15.59839844 25.34436523 15.59839844 25.34436523 14.33984375 25.38085938 C12.61351877 25.42324682 10.88688799 25.45480741 9.16015625 25.47460938 C3.24590285 25.67205728 -0.30157578 26.70359506 -5.16015625 30.1328125 C-10.52016199 36.79660343 -9.82936363 41.81726419 -11.16015625 51.1328125 C-1.26015625 51.1328125 8.63984375 51.1328125 18.83984375 51.1328125 C20.72503904 54.90320307 20.02460369 59.48435845 20.02734375 63.6328125 C20.03958984 64.60863281 20.05183594 65.58445312 20.06445312 66.58984375 C20.06638672 67.52183594 20.06832031 68.45382812 20.0703125 69.4140625 C20.07442139 70.27064453 20.07853027 71.12722656 20.08276367 72.00976562 C19.83984375 74.1328125 19.83984375 74.1328125 17.83984375 76.1328125 C14.95068359 76.35986328 14.95068359 76.35986328 11.30078125 76.328125 C9.34785156 76.31845703 9.34785156 76.31845703 7.35546875 76.30859375 C5.9752578 76.29188179 4.59504946 76.27495189 3.21484375 76.2578125 C1.82682923 76.24778256 0.43880786 76.23865673 -0.94921875 76.23046875 C-4.35303651 76.20683113 -7.75651131 76.17388117 -11.16015625 76.1328125 C-11.15793564 77.32075912 -11.15571503 78.50870575 -11.15342712 79.73265076 C-11.13319733 90.90189236 -11.1181849 102.07113027 -11.10834408 113.24038601 C-11.10311484 118.98326312 -11.09601645 124.72612551 -11.0847168 130.46899414 C-11.07388938 136.00621245 -11.06787973 141.54341654 -11.06527901 147.08064461 C-11.06342449 149.19825527 -11.05980339 151.31586512 -11.05442619 153.43346977 C-11.04721769 156.38852524 -11.04616523 159.34352121 -11.04663086 162.29858398 C-11.04303558 163.18330887 -11.03944031 164.06803375 -11.03573608 164.97956848 C-11.04610409 171.01876034 -11.04610409 171.01876034 -12.16015625 172.1328125 C-14.07473907 172.23253036 -15.99297942 172.26361839 -17.91015625 172.265625 C-19.07546875 172.26691406 -20.24078125 172.26820313 -21.44140625 172.26953125 C-22.66859375 172.26566406 -23.89578125 172.26179687 -25.16015625 172.2578125 C-26.38734375 172.26167969 -27.61453125 172.26554688 -28.87890625 172.26953125 C-30.04421875 172.26824219 -31.20953125 172.26695312 -32.41015625 172.265625 C-33.4878125 172.26449707 -34.56546875 172.26336914 -35.67578125 172.26220703 C-38.16015625 172.1328125 -38.16015625 172.1328125 -39.16015625 171.1328125 C-39.26295861 169.41145858 -39.29536566 167.68586932 -39.30059814 165.9614563 C-39.30630829 164.8400676 -39.31201843 163.71867889 -39.31790161 162.56330872 C-39.31901947 161.32183578 -39.32013733 160.08036285 -39.32128906 158.80126953 C-39.32625397 157.5020607 -39.33121887 156.20285187 -39.33633423 154.86427307 C-39.34948854 151.28726203 -39.35591047 147.71026979 -39.36034489 144.13323832 C-39.36327414 141.89605233 -39.36737894 139.65887148 -39.37184906 137.42168808 C-39.38553945 130.4158951 -39.39519536 123.41011387 -39.39905095 116.40430844 C-39.40351877 108.33056209 -39.42100046 100.25698613 -39.45005155 92.18329155 C-39.47173917 85.93771241 -39.48175919 79.69218092 -39.48309207 73.44656456 C-39.48413617 69.71988563 -39.48995757 65.99336654 -39.50791168 62.26672745 C-39.52760561 58.09714886 -39.52307536 53.92792093 -39.51660156 49.75830078 C-39.52581635 48.53707016 -39.53503113 47.31583954 -39.54452515 46.05760193 C-39.47841268 32.41063811 -36.05838924 20.4736184 -26.7109375 10.31640625 C-19.24209691 3.9227127 -9.84594674 0.01276445 0 0 Z " fill="#4F0003" transform="translate(1421.16015625,196.8671875)"/>
<path d="M0 0 C0.92425781 -0.00386719 1.84851562 -0.00773438 2.80078125 -0.01171875 C4.24517578 0.00568359 4.24517578 0.00568359 5.71875 0.0234375 C6.68167969 0.01183594 7.64460938 0.00023437 8.63671875 -0.01171875 C9.56097656 -0.00785156 10.48523437 -0.00398437 11.4375 0 C12.28248047 0.00338379 13.12746094 0.00676758 13.99804688 0.01025391 C16.21875 0.3984375 16.21875 0.3984375 17.97192383 1.50854492 C19.81299873 4.29917754 19.76080664 6.71620443 19.94921875 10.03515625 C20.02978516 11.33388672 20.11035156 12.63261719 20.19335938 13.97070312 C20.26462442 15.34243229 20.33558406 16.71417735 20.40625 18.0859375 C20.48765371 19.46947686 20.57032139 20.85294248 20.65429688 22.23632812 C20.85491162 25.62317708 21.04252229 29.01024628 21.21875 32.3984375 C22.03142334 32.39320068 22.84409668 32.38796387 23.68139648 32.38256836 C27.33967322 32.36186756 30.99793767 32.34879947 34.65625 32.3359375 C35.93564453 32.32755859 37.21503906 32.31917969 38.53320312 32.31054688 C40.35561523 32.30571289 40.35561523 32.30571289 42.21484375 32.30078125 C43.34075928 32.29554443 44.4666748 32.29030762 45.62670898 32.28491211 C48.21875 32.3984375 48.21875 32.3984375 49.21875 33.3984375 C49.30588831 35.10616108 49.32575007 36.81742399 49.31640625 38.52734375 C49.31318359 39.56181641 49.30996094 40.59628906 49.30664062 41.66210938 C49.29407227 43.2950293 49.29407227 43.2950293 49.28125 44.9609375 C49.27673828 46.05341797 49.27222656 47.14589844 49.26757812 48.27148438 C49.25574826 50.98052245 49.23926543 53.68945349 49.21875 56.3984375 C46.50473706 57.75544397 44.37028684 57.5108236 41.3359375 57.49609375 C40.16933594 57.49287109 39.00273438 57.48964844 37.80078125 57.48632812 C36.57746094 57.47794922 35.35414062 57.46957031 34.09375 57.4609375 C32.86269531 57.45642578 31.63164063 57.45191406 30.36328125 57.44726562 C27.31505608 57.4354508 24.26692686 57.41897778 21.21875 57.3984375 C21.28013513 64.97041241 21.35736555 72.54208781 21.45446491 80.11368656 C21.49906906 83.63004803 21.53834638 87.1462963 21.56518555 90.6628418 C21.59632643 94.7117185 21.65111099 98.75998288 21.70703125 102.80859375 C21.71342117 104.06301773 21.7198111 105.31744171 21.72639465 106.60987854 C21.85278417 114.14884769 22.16690994 119.75591872 27.15625 125.7109375 C30.57767632 128.51028631 33.31164179 129.63330694 37.73046875 129.77734375 C38.57029297 129.81150391 39.41011719 129.84566406 40.27539062 129.88085938 C41.14357422 129.90728516 42.01175781 129.93371094 42.90625 129.9609375 C44.63946981 130.02061613 46.37256099 130.0842032 48.10546875 130.15234375 C49.25341919 130.18823608 49.25341919 130.18823608 50.42456055 130.22485352 C52.21875 130.3984375 52.21875 130.3984375 53.21875 131.3984375 C53.47083722 135.20431894 53.40397344 139.02269206 53.40625 142.8359375 C53.41849609 143.91166016 53.43074219 144.98738281 53.44335938 146.09570312 C53.44529297 147.12244141 53.44722656 148.14917969 53.44921875 149.20703125 C53.45332764 150.15376709 53.45743652 151.10050293 53.46166992 152.07592773 C53.21875 154.3984375 53.21875 154.3984375 51.21875 156.3984375 C35.2076476 158.40721049 18.53289111 157.37939211 5.375 147.3828125 C-4.78316712 138.03435436 -7.30792774 125.0064695 -7.89981461 111.74118423 C-8.1019025 104.11392231 -8.08706701 96.48485761 -8.08203125 88.85546875 C-8.08592364 86.39401681 -8.09025942 83.93256553 -8.09501648 81.47111511 C-8.10243873 76.34164233 -8.10221362 71.21223846 -8.09692383 66.08276367 C-8.0910915 59.50082437 -8.10816977 52.91916304 -8.1312685 46.33726978 C-8.1459618 41.26820726 -8.1468843 36.19921272 -8.14375877 31.13013268 C-8.1442728 28.70156993 -8.14952563 26.27300346 -8.15957069 23.84446144 C-8.17185109 20.4648854 -8.16519722 17.08586536 -8.15356445 13.70629883 C-8.16120819 12.70114731 -8.16885193 11.69599579 -8.17672729 10.66038513 C-8.16971298 9.74252228 -8.16269867 8.82465942 -8.1554718 7.87898254 C-8.15563954 7.08137921 -8.15580729 6.28377588 -8.15598011 5.46200275 C-7.30707612 0.78725491 -4.30507205 0.01723999 0 0 Z " fill="#4F0003" transform="translate(1470.78125,215.6015625)"/>
<path d="M0 0 C1.45116211 -0.0309375 1.45116211 -0.0309375 2.93164062 -0.0625 C4.32479492 -0.07023438 4.32479492 -0.07023438 5.74609375 -0.078125 C7.02311157 -0.09214355 7.02311157 -0.09214355 8.32592773 -0.10644531 C10.5625 0.25 10.5625 0.25 12.31787109 1.35571289 C14.15376115 4.14988138 14.10452714 6.56724737 14.29296875 9.88671875 C14.37353516 11.18544922 14.45410156 12.48417969 14.53710938 13.82226562 C14.60837442 15.19399479 14.67933406 16.56573985 14.75 17.9375 C14.83140371 19.32103936 14.91407139 20.70450498 14.99804688 22.08789062 C15.19866162 25.47473958 15.38627229 28.86180878 15.5625 32.25 C16.77365479 32.23428955 16.77365479 32.23428955 18.00927734 32.21826172 C21.65198682 32.17680169 25.29464675 32.15070562 28.9375 32.125 C30.84402344 32.09986328 30.84402344 32.09986328 32.7890625 32.07421875 C34.60664062 32.06455078 34.60664062 32.06455078 36.4609375 32.0546875 C37.58161621 32.04421387 38.70229492 32.03374023 39.85693359 32.02294922 C42.5625 32.25 42.5625 32.25 44.5625 34.25 C45.01119661 37.54243604 44.88658242 40.86797743 44.875 44.1875 C44.89111328 45.10724609 44.90722656 46.02699219 44.92382812 46.97460938 C44.92447266 47.85826172 44.92511719 48.74191406 44.92578125 49.65234375 C44.92876221 50.46179443 44.93174316 51.27124512 44.93481445 52.10522461 C44.45593788 54.86386768 43.79758395 55.57805953 41.5625 57.25 C38.83520508 57.59057617 38.83520508 57.59057617 35.58203125 57.54296875 C34.41865234 57.53330078 33.25527344 57.52363281 32.05664062 57.51367188 C30.84169922 57.48853516 29.62675781 57.46339844 28.375 57.4375 C27.14845703 57.42396484 25.92191406 57.41042969 24.65820312 57.39648438 C21.62586336 57.36108741 18.59440004 57.3117076 15.5625 57.25 C15.6239405 64.67433263 15.7012094 72.09832712 15.79821491 79.52228546 C15.84278042 82.97023645 15.88206587 86.41807304 15.90893555 89.86621094 C15.94012537 93.83814233 15.99490877 97.80958622 16.05078125 101.78125 C16.05717117 103.00863892 16.0635611 104.23602783 16.07014465 105.50061035 C16.14228879 115.88550136 16.14228879 115.88550136 20.97846985 124.79870605 C24.72979271 128.08766774 27.86697416 129.32885563 32.7578125 129.53125 C33.55574219 129.56863281 34.35367187 129.60601562 35.17578125 129.64453125 C36.8580592 129.71517123 38.54035105 129.78548071 40.22265625 129.85546875 C46.46118994 130.14868994 46.46118994 130.14868994 47.5625 131.25 C47.81458722 135.05588144 47.74772344 138.87425456 47.75 142.6875 C47.76224609 143.76322266 47.77449219 144.83894531 47.78710938 145.94726562 C47.78904297 146.97400391 47.79097656 148.00074219 47.79296875 149.05859375 C47.79707764 150.00532959 47.80118652 150.95206543 47.80541992 151.92749023 C47.5625 154.25 47.5625 154.25 45.5625 156.25 C31.47396864 158.01756482 15.20652822 157.78430194 3.1875 149.5 C-5.42156325 142.23496772 -10.50498286 134.44681655 -12.4375 123.25 C-12.52257328 121.50732665 -12.55955137 119.76188335 -12.55775452 118.01713562 C-12.55912918 116.9837355 -12.56050385 115.95033539 -12.56192017 114.88562012 C-12.55832489 113.7628064 -12.55472961 112.63999268 -12.55102539 111.4831543 C-12.55117142 110.29248856 -12.55131744 109.10182281 -12.5514679 107.87507629 C-12.5508915 104.6192606 -12.54588364 101.36348814 -12.53889394 98.10768104 C-12.53263351 94.70173821 -12.53205447 91.29579449 -12.53086853 87.8898468 C-12.52776314 81.44429911 -12.51956044 74.99876841 -12.50951904 68.5532282 C-12.49833329 61.21347191 -12.49284125 53.87371481 -12.48782361 46.53395212 C-12.47737716 31.43929194 -12.45979307 16.34464767 -12.4375 1.25 C-8.67595432 -0.63077284 -4.13926726 0.02197355 0 0 Z " fill="#4F0003" transform="translate(1088.4375,215.75)"/>
<path d="M0 0 C1.18106323 0.11746582 1.18106323 0.11746582 2.38598633 0.23730469 C8.00664009 0.88164009 8.00664009 0.88164009 10.25 3.125 C10.47705078 5.37158203 10.47705078 5.37158203 10.4453125 8.1328125 C10.43886719 9.11894531 10.43242188 10.10507813 10.42578125 11.12109375 C10.40064453 12.66990234 10.40064453 12.66990234 10.375 14.25 C10.36597656 15.29027344 10.35695313 16.33054687 10.34765625 17.40234375 C10.32403747 19.97679092 10.29110149 22.55078212 10.25 25.125 C6.33543536 26.05706095 2.75253624 26.21614679 -1.265625 26.15234375 C-3.14314453 26.13397461 -3.14314453 26.13397461 -5.05859375 26.11523438 C-7.67063121 26.0802864 -10.28261767 26.04127313 -12.89453125 25.99804688 C-14.15136719 25.98708984 -15.40820312 25.97613281 -16.703125 25.96484375 C-17.83911133 25.94800537 -18.97509766 25.93116699 -20.14550781 25.91381836 C-23.11082949 26.08755199 -25.60437561 26.47546235 -28.47528076 27.13819885 C-29.27806835 27.32191827 -30.08085594 27.50563768 -30.90797043 27.69492435 C-31.81977507 27.9078118 -31.81977507 27.9078118 -32.75 28.125 C-32.76030746 29.3254747 -32.77061493 30.5259494 -32.78123474 31.76280212 C-32.87878885 43.04982664 -32.98150537 54.33679381 -33.08933926 65.62372494 C-33.1446164 71.42710869 -33.19804392 77.23049744 -33.24731445 83.03393555 C-33.29488751 88.62955332 -33.34722748 94.22510766 -33.40294075 99.8206501 C-33.4233964 101.96057122 -33.44210404 104.10050975 -33.45907402 106.24046135 C-33.48304723 109.22669681 -33.51311108 112.21281117 -33.54467773 115.19897461 C-33.55331093 116.54008804 -33.55331093 116.54008804 -33.56211853 117.90829468 C-33.63594784 124.01094784 -33.63594784 124.01094784 -34.75 125.125 C-36.66458282 125.22471786 -38.58282317 125.25580589 -40.5 125.2578125 C-41.6653125 125.25910156 -42.830625 125.26039063 -44.03125 125.26171875 C-45.2584375 125.25785156 -46.485625 125.25398438 -47.75 125.25 C-49.59078125 125.25580078 -49.59078125 125.25580078 -51.46875 125.26171875 C-52.6340625 125.26042969 -53.799375 125.25914062 -55 125.2578125 C-56.07765625 125.25668457 -57.1553125 125.25555664 -58.265625 125.25439453 C-60.75 125.125 -60.75 125.125 -61.75 124.125 C-61.85866171 122.65429678 -61.89848802 121.1784431 -61.91062927 119.70378113 C-61.9206749 118.74897354 -61.93072052 117.79416595 -61.94107056 116.8104248 C-61.94690155 115.75432007 -61.95273254 114.69821533 -61.95874023 113.61010742 C-61.96852402 112.50447952 -61.9783078 111.39885162 -61.98838806 110.25971985 C-62.01842108 106.58331523 -62.03974827 102.90694715 -62.05859375 99.23046875 C-62.06516558 97.97866632 -62.0717374 96.7268639 -62.07850838 95.43712807 C-62.10441146 90.17771592 -62.12790178 84.91830923 -62.14300442 79.65885448 C-62.16491593 72.11596895 -62.2068875 64.57379493 -62.27644199 57.03119391 C-62.32935197 51.0922623 -62.34948296 45.15348849 -62.35820198 39.21431923 C-62.36678755 36.68605337 -62.38568103 34.15780124 -62.4149456 31.62969017 C-62.45365893 28.09524962 -62.45492012 24.56267669 -62.44702148 21.02807617 C-62.46702209 19.97804413 -62.48702271 18.92801208 -62.50762939 17.84616089 C-62.48037632 15.13785681 -62.40970352 12.75181112 -61.75 10.125 C-58.74149209 7.41749074 -55.82579145 5.86820399 -51.97265625 4.7109375 C-51.30210205 4.50815186 -50.63154785 4.30536621 -49.94067383 4.09643555 C-49.23837646 3.89961182 -48.5360791 3.70278809 -47.8125 3.5 C-47.06959717 3.28835205 -46.32669434 3.0767041 -45.5612793 2.85864258 C-30.48659306 -1.26633537 -15.47607795 -1.59233457 0 0 Z " fill="#4F0003" transform="translate(1894.75,243.875)"/>
<path d="M0 0 C1.17111328 -0.01224609 2.34222656 -0.02449219 3.54882812 -0.03710938 C4.66580078 -0.03904297 5.78277344 -0.04097656 6.93359375 -0.04296875 C7.96411865 -0.04707764 8.99464355 -0.05118652 10.05639648 -0.05541992 C12.5625 0.1875 12.5625 0.1875 14.5625 2.1875 C14.81138897 4.30488682 14.81138897 4.30488682 14.80973816 6.97694397 C14.81393265 7.98794662 14.81812714 8.99894928 14.82244873 10.04058838 C14.81401947 11.71057892 14.81401947 11.71057892 14.80541992 13.41430664 C14.80731827 14.58342087 14.80921661 15.7525351 14.81117249 16.95707703 C14.81424815 20.16772972 14.80835797 23.37821374 14.79821944 26.5888474 C14.78945061 29.94362438 14.79119615 33.29839688 14.7915802 36.65318298 C14.79064313 42.28647183 14.78195282 47.91970687 14.76831055 53.55297852 C14.75257695 60.07408154 14.74731268 66.59512565 14.7480461 73.11624628 C14.74865557 79.3803922 14.74355803 85.64451885 14.73525429 91.90865898 C14.73171577 94.57890409 14.72989023 97.24914238 14.72936058 99.91938972 C14.72720461 103.64298635 14.71847677 107.36650737 14.70776367 111.09008789 C14.70844345 112.76311478 14.70844345 112.76311478 14.70913696 114.46994019 C14.70487198 115.47812302 14.70060699 116.48630585 14.69621277 117.52503967 C14.69453692 118.40644151 14.69286108 119.28784334 14.69113445 120.19595432 C14.5625 122.1875 14.5625 122.1875 13.5625 123.1875 C11.56285018 123.27508003 9.5601389 123.29446576 7.55859375 123.28515625 C5.73618164 123.28032227 5.73618164 123.28032227 3.87695312 123.27539062 C2.59755859 123.26701172 1.31816406 123.25863281 0 123.25 C-1.28326172 123.24548828 -2.56652344 123.24097656 -3.88867188 123.23632812 C-7.07166022 123.22449545 -10.25455762 123.20801068 -13.4375 123.1875 C-13.46082924 107.29794873 -13.4784793 91.40840206 -13.48931217 75.51883793 C-13.49447508 68.14154044 -13.50151767 60.76425357 -13.51293945 53.38696289 C-13.52288646 46.9591782 -13.52935347 40.5314012 -13.53158849 34.10360903 C-13.53289557 30.69810722 -13.53598125 27.29262742 -13.54323006 23.88713264 C-13.55043606 20.09148959 -13.55149113 16.29589288 -13.55102539 12.50024414 C-13.55462067 11.36304932 -13.55821594 10.22585449 -13.56192017 9.05419922 C-13.5605455 8.02629776 -13.55917084 6.9983963 -13.55775452 5.93934631 C-13.55867631 5.04059815 -13.5595981 4.14184999 -13.56054783 3.21586704 C-13.23031586 -2.22780182 -4.06635567 0.00223058 0 0 Z " fill="#4F0003" transform="translate(804.4375,245.8125)"/>
<path d="M0 0 C1.11697266 -0.00128906 2.23394531 -0.00257813 3.38476562 -0.00390625 C4.55587891 -0.00003906 5.72699219 0.00382813 6.93359375 0.0078125 C8.10857422 0.00394531 9.28355469 0.00007812 10.49414062 -0.00390625 C12.16766602 -0.00197266 12.16766602 -0.00197266 13.875 0 C14.90439697 0.00112793 15.93379395 0.00225586 16.99438477 0.00341797 C19.37109375 0.1328125 19.37109375 0.1328125 20.37109375 1.1328125 C20.469174 2.69936709 20.49741252 4.27034402 20.49807739 5.83996582 C20.50089722 6.85800797 20.50371704 7.87605011 20.50662231 8.92494202 C20.50459808 10.05121506 20.50257385 11.1774881 20.50048828 12.33789062 C20.5022406 13.5166124 20.50399292 14.69533417 20.50579834 15.90977478 C20.50945642 19.15142858 20.50858349 22.39304183 20.50541925 25.63469505 C20.50289519 29.02017683 20.50523332 32.40565582 20.50680542 35.7911377 C20.50862698 41.47746266 20.50622116 47.16377466 20.50146484 52.85009766 C20.49602225 59.43309268 20.49778491 66.01605673 20.50329125 72.599051 C20.50782276 78.24150563 20.50847274 83.88395091 20.50585258 89.52640676 C20.50429002 92.90059002 20.50409547 96.27475871 20.50738907 99.64894104 C20.50991387 103.40856046 20.50607743 107.16811948 20.50048828 110.92773438 C20.50251251 112.05400742 20.50453674 113.18028046 20.50662231 114.34068298 C20.50239258 115.8677462 20.50239258 115.8677462 20.49807739 117.42565918 C20.49770037 118.31573418 20.49732334 119.20580917 20.49693489 120.12285614 C20.37109375 122.1328125 20.37109375 122.1328125 19.37109375 123.1328125 C17.45651093 123.23253036 15.53827058 123.26361839 13.62109375 123.265625 C12.45578125 123.26691406 11.29046875 123.26820313 10.08984375 123.26953125 C8.86265625 123.26566406 7.63546875 123.26179688 6.37109375 123.2578125 C4.5303125 123.26361328 4.5303125 123.26361328 2.65234375 123.26953125 C1.48703125 123.26824219 0.32171875 123.26695312 -0.87890625 123.265625 C-1.9565625 123.26449707 -3.03421875 123.26336914 -4.14453125 123.26220703 C-6.62890625 123.1328125 -6.62890625 123.1328125 -7.62890625 122.1328125 C-7.72481824 120.56393615 -7.75078621 118.99073458 -7.74916077 117.41893005 C-7.75122276 115.8896991 -7.75122276 115.8896991 -7.75332642 114.32957458 C-7.74973114 113.2017305 -7.74613586 112.07388641 -7.74243164 110.91186523 C-7.74257767 109.73153717 -7.74272369 108.55120911 -7.74287415 107.33511353 C-7.7422952 104.08939142 -7.73726611 100.84371195 -7.73030019 97.59799838 C-7.72406587 94.20938218 -7.72346279 90.82076522 -7.72227478 87.43214417 C-7.71916169 81.01125446 -7.71094861 74.59038169 -7.70092529 68.16949946 C-7.68976345 60.86127425 -7.68425352 53.55304826 -7.67922986 46.24481666 C-7.66876598 31.20747248 -7.65116698 16.17014418 -7.62890625 1.1328125 C-4.98062446 -0.1913284 -2.96210513 0.00324208 0 0 Z " fill="#4F0003" transform="translate(522.62890625,245.8671875)"/>
<path d="M0 0 C5.4141208 5.86529753 6.52296357 11.17467719 6.37890625 18.9921875 C5.62793084 24.95353873 2.40631189 28.92087044 -1.9375 32.875 C-7.1618953 36.50009062 -11.6664826 37.63335174 -18 37 C-24.75814511 35.13568411 -29.1686161 32.92122966 -33 27 C-35.92554774 21.6533093 -37.02200395 16.98602313 -36 11 C-34.006149 5.05389323 -31.32517345 0.20298758 -25.875 -3.09765625 C-16.92089581 -7.40681889 -7.77101273 -6.47584395 0 0 Z " fill="#4F0003" transform="translate(407,199)"/>
<path d="M0 0 C4.59622197 4.70068156 6.81495242 8.71543672 7.1015625 15.3515625 C6.82863466 22.13276964 4.57266523 26.99864741 0 32 C-5.60176935 36.37034591 -11.02807345 37.4647951 -18 37 C-24.61688083 35.2891715 -29.20889423 32.48764691 -33.25 26.875 C-35.87881826 21.8641505 -36.63425594 16.39082984 -35.59375 10.828125 C-33.53442911 4.50306798 -29.61331872 -0.3666758 -24 -3.875 C-15.2188429 -7.16793391 -7.33007876 -5.99733717 0 0 Z " fill="#4F0003" transform="translate(212,353)"/>
<path d="M0 0 C4.56260532 2.2412798 7.85776622 4.9886564 9.6875 9.8125 C10.57122309 15.99856165 10.06189975 20.48858045 7 26 C3.55253791 29.8678843 1.1936339 31.26698087 -3.9375 32 C-8.66639135 32.23431444 -11.88884702 31.49893613 -16 29 C-19.33978698 25.81635891 -21.73539043 22.67153896 -22.203125 17.94921875 C-22.30867738 12.85631656 -21.93666985 9.35437254 -19 5 C-12.92434496 -0.48290821 -8.02754655 -0.76602732 0 0 Z " fill="#4F0003" transform="translate(811,199)"/>
<path d="M0 0 C4.67113357 4.32934331 6.80111982 7.45376026 7.0625 13.875 C6.81598783 20.13980938 4.61550524 23.20468018 0.375 27.6875 C-4.1089757 30.37788542 -8.52015001 30.95538829 -13.65625 29.93359375 C-19.27712151 28.09842115 -21.93317765 25.23321246 -24.6875 20 C-26.1122995 15.01320174 -25.92712063 10.92587297 -23.875 6.1875 C-18.93564413 -2.64502872 -8.74415455 -4.13360033 0 0 Z " fill="#4F0003" transform="translate(538.4375,200.625)"/>
</svg>
