<?xml version="1.0" encoding="UTF-8"?>
<svg version="1.1" xmlns="http://www.w3.org/2000/svg" width="1024" height="512">
<path d="M0 0 C8.25 0 16.5 0 25 0 C29.39244468 8.595967 33.4293165 17.28553887 37.31820679 26.11715698 C38.70110665 29.25744875 40.09057022 32.39482342 41.47962952 35.53239441 C42.21034914 37.18298718 42.94076409 38.83371486 43.67088318 40.48457336 C47.65068375 49.48040212 51.66731969 58.45966131 55.6875 67.4375 C56.39681956 69.02213109 57.10612951 70.60676648 57.81542969 72.19140625 C59.87616114 76.79462573 61.93787235 81.39740584 64 86 C64.33334351 86.74401062 64.66668701 87.48802124 65.01013184 88.25457764 C69.00498834 97.17051058 73.00155465 106.0856759 77 115 C79.98134478 111.43971433 81.79779915 107.43168714 83.703125 103.23828125 C84.05748627 102.46834335 84.41184753 101.69840546 84.77694702 100.90513611 C85.93930118 98.37637117 87.09471938 95.84450337 88.25 93.3125 C89.06262921 91.54052539 89.87562182 89.76871739 90.68896484 87.99707031 C93.13326114 82.6680297 95.56809809 77.33470635 98 72 C98.34816772 71.23645203 98.69633545 70.47290405 99.05505371 69.68621826 C102.45746731 62.22282585 105.85015804 54.75504494 109.23828125 47.28515625 C113.05718893 38.86621673 116.8929874 30.45501728 120.73480225 22.04650879 C121.44703736 20.48747343 122.15899709 18.92831223 122.8706665 17.36901855 C123.85706604 15.20792122 124.8444074 13.04725679 125.83203125 10.88671875 C126.12401901 10.2466539 126.41600677 9.60658905 126.71684265 8.9471283 C128.09506951 5.9351473 129.5181743 2.96365141 131 0 C138.26 0 145.52 0 153 0 C153 49.17 153 98.34 153 149 C146.07 149 139.14 149 132 149 C129.82118917 146.82118917 130.81322672 141.64714061 130.79467773 138.61499023 C130.78477814 137.62973358 130.77487854 136.64447693 130.76467896 135.62936401 C130.73296006 132.3557988 130.70826563 129.08221905 130.68359375 125.80859375 C130.66303318 123.54557405 130.64203696 121.28255827 130.62062073 119.01954651 C130.56530734 113.05025395 130.51593907 107.08092621 130.46777344 101.11157227 C130.4176259 95.02552136 130.3619047 88.93952184 130.30664062 82.85351562 C130.19894578 70.90238759 130.09752613 58.95121504 130 47 C126.10971372 55.67804485 126.10971372 55.67804485 122.21957397 64.3561554 C121.77276937 65.35290834 121.77276937 65.35290834 121.3169384 66.36979771 C120.71639872 67.70951077 120.11585984 69.04922418 119.51532173 70.38893795 C117.86883432 74.06196288 116.22213976 77.73489482 114.57519531 81.40771484 C112.59061821 85.83378236 110.60741482 90.26046363 108.625 94.6875 C108.10570923 95.84673477 108.10570923 95.84673477 107.57592773 97.02938843 C103.56318576 105.98977763 99.56937085 114.95802995 95.6171875 123.9453125 C95.09241318 125.13816612 95.09241318 125.13816612 94.55703735 126.3551178 C92.88675013 130.15337064 91.21963183 133.95297226 89.55712891 137.75463867 C88.96522046 139.10337533 88.37326367 140.45209077 87.78125 141.80078125 C87.26626953 142.97809814 86.75128906 144.15541504 86.22070312 145.3684082 C85 148 85 148 84 149 C81.30345146 149.07319621 78.63308542 149.09242537 75.9375 149.0625 C75.17888672 149.05798828 74.42027344 149.05347656 73.63867188 149.04882812 C71.75908129 149.0370068 69.87953101 149.01907078 68 149 C61.66541863 135.46559184 55.47300994 121.88569739 49.5 108.1875 C40.43504801 87.41365168 31.2053425 66.71202062 22 46 C21.67 79.99 21.34 113.98 21 149 C14.07 149 7.14 149 0 149 C0 99.83 0 50.66 0 0 Z " fill="#4F0003" transform="translate(323,181)"/>
<path d="M0 0 C9.66434147 6.39148824 17.2189383 14.72660977 19.828125 26.20703125 C21.118559 37.39079258 19.74721934 48.13906192 12.93359375 57.42578125 C3.86765401 68.06751639 -5.14598439 70.90909728 -18.62841797 72.23925781 C-22.21103948 72.59905272 -25.78482555 73.02535896 -29.359375 73.45703125 C-31.24849609 73.67359375 -31.24849609 73.67359375 -33.17578125 73.89453125 C-36.8957266 74.47238684 -40.26890195 75.13131579 -43.796875 76.45703125 C-44.95686851 78.30391534 -44.95686851 78.30391534 -45.796875 80.45703125 C-46.07136475 81.04419922 -46.34585449 81.63136719 -46.62866211 82.23632812 C-49.61837831 89.8853798 -49.29080726 97.87316155 -49.359375 105.95703125 C-49.63149729 130.90982039 -49.63149729 130.90982039 -57.796875 140.45703125 C-65.90412457 147.88206608 -73.17149591 148.85398764 -83.86938477 148.88256836 C-85.96166326 148.89440279 -88.05092652 148.94356997 -90.14257812 148.99414062 C-98.51558619 149.09418587 -104.72099995 148.08639727 -111.796875 143.45703125 C-112.704375 142.90015625 -113.611875 142.34328125 -114.546875 141.76953125 C-123.43213253 132.63746101 -125.14939053 122.31077618 -125.109375 110.08203125 C-125.12548828 109.10492188 -125.14160156 108.1278125 -125.15820312 107.12109375 C-125.16418364 98.1263991 -123.98550551 89.89351076 -117.671875 83.08203125 C-116.96804687 82.29054688 -116.26421875 81.4990625 -115.5390625 80.68359375 C-108.09641692 74.64041999 -100.96217916 73.91867118 -91.609375 73.89453125 C-80.13134561 73.65115708 -69.01751625 73.30776765 -58.796875 67.45703125 C-55.0476874 61.63932636 -54.68922119 55.68808657 -54.62109375 48.9140625 C-54.59724609 47.67462891 -54.57339844 46.43519531 -54.54882812 45.15820312 C-54.50618581 42.58545005 -54.47475965 40.01248429 -54.45507812 37.43945312 C-54.16961225 24.60676607 -51.04016338 15.12744229 -42.20703125 5.7734375 C-31.72859216 -4.11327797 -13.00020201 -6.43191813 0 0 Z " fill="#4F0003" transform="translate(234.796875,183.54296875)"/>
<path d="M0 0 C1.25562744 0.01244751 1.25562744 0.01244751 2.53662109 0.02514648 C13.16234788 0.3155403 20.96905584 4.03088736 28.625 11.4375 C35.87198932 19.8079309 38.2447656 29.60630937 37.90625 40.5234375 C36.7482252 52.52186116 30.86966724 60.83177573 22.06640625 68.7109375 C16.7704845 72.45621336 11.56791448 73.82734627 5.1875 74.5 C4.50445801 74.57742432 3.82141602 74.65484863 3.11767578 74.73461914 C0.22163902 75.06246612 -2.67688384 75.36469889 -5.57568359 75.66699219 C-7.71823215 75.89383338 -9.85898733 76.134158 -12 76.375 C-13.27101563 76.50777344 -14.54203125 76.64054687 -15.8515625 76.77734375 C-20.36107218 77.62225188 -23.93282861 78.80007025 -27.01953125 82.3046875 C-27.40496094 82.96726562 -27.79039063 83.62984375 -28.1875 84.3125 C-28.58582031 84.96992188 -28.98414062 85.62734375 -29.39453125 86.3046875 C-31.5667293 91.02986732 -31.5317763 95.93092007 -31.5859375 101.046875 C-31.61401683 102.53907327 -31.64268137 104.03126062 -31.671875 105.5234375 C-31.712971 107.85123252 -31.74990139 110.17882609 -31.77636719 112.50683594 C-31.92087685 124.23205136 -32.16662302 135.10329101 -40.94140625 144.03125 C-48.88098365 151.2781126 -55.72868377 151.92822373 -66.28100586 151.82861328 C-68.30456249 151.81256296 -70.32611441 151.82849483 -72.34960938 151.84765625 C-84.01666242 151.81284654 -90.56063686 149.96037574 -99.16796875 141.85546875 C-106.26794221 134.07691375 -106.6400413 125.52838202 -106.72509766 115.51586914 C-106.7415554 114.10098709 -106.76870955 112.68618461 -106.80712891 111.27172852 C-107.07686829 101.26908842 -106.49074768 92.92403586 -99.38427734 85.30249023 C-91.6497165 77.90364822 -84.64688389 77.04407985 -74.3125 76.9375 C-62.8197553 76.64911871 -51.60175226 76.30626124 -41.375 70.4375 C-37.88617133 64.9034959 -37.26686579 59.70917847 -37.19921875 53.28125 C-37.17537109 52.09273437 -37.15152344 50.90421875 -37.12695312 49.6796875 C-37.08452548 47.21631298 -37.05298627 44.75272293 -37.03320312 42.2890625 C-36.74389348 29.77473818 -34.4155034 18.55165312 -25.375 9.4375 C-17.7933786 2.52439833 -10.19310928 -0.13041758 0 0 Z " fill="#4F0003" transform="translate(116.375,180.5625)"/>
<path d="M0 0 C2.95064148 -0.2208564 5.68368231 -0.28060989 8.625 -0.1875 C9.42679688 -0.17396484 10.22859375 -0.16042969 11.0546875 -0.14648438 C13.03674378 -0.11109051 15.01845551 -0.05728234 17 0 C20.40984817 6.5865931 23.42553609 13.22519191 26.140625 20.125 C26.53263092 21.10978333 26.92463684 22.09456665 27.32852173 23.10919189 C28.63959122 26.40458879 29.94475757 29.70229125 31.25 33 C32.93364044 37.23886148 34.61958585 41.47680317 36.30665207 45.71430206 C36.83022245 47.02951618 37.35361918 48.34479943 37.87685013 49.66014862 C42.42874982 61.10139315 47.02916325 72.52269144 51.64567566 83.93800354 C52.78553741 86.75690737 53.92468953 89.57609689 55.06359863 92.39538574 C55.82202018 94.27270561 56.58044303 96.15002494 57.33886719 98.02734375 C57.71376785 98.95536049 58.08866852 99.88337723 58.47492981 100.83951569 C60.36403278 105.51467151 62.25511331 110.18901142 64.15002441 114.86181641 C65.95237704 119.30652664 67.74990233 123.75315942 69.54395676 128.20122528 C70.21357165 129.85874814 70.8850398 131.51552361 71.55842972 133.17151642 C72.48366033 135.44741376 73.40250327 137.72578827 74.31982422 140.00488281 C74.73091116 141.00940742 74.73091116 141.00940742 75.15030289 142.03422546 C76.28222598 144.86365353 77 146.91935928 77 150 C69.41 150 61.82 150 54 150 C52.28618415 145.78431905 50.5756044 141.56761211 48.87304688 137.34741211 C48.29288127 135.91208628 47.71086106 134.47750865 47.12695312 133.04370117 C46.28807948 130.98289679 45.45590761 128.91949566 44.625 126.85546875 C44.36251465 126.21473923 44.1000293 125.5740097 43.82958984 124.91386414 C42.70398703 122.10091871 42 120.06281705 42 117 C19.89 117 -2.22 117 -25 117 C-25.33 118.65 -25.66 120.3 -26 122 C-26.79442194 124.21923609 -27.63366226 126.42266708 -28.50390625 128.61328125 C-28.86801857 129.53490303 -28.86801857 129.53490303 -29.23948669 130.47514343 C-30.0098905 132.42251559 -30.78609451 134.36751397 -31.5625 136.3125 C-32.08827647 137.63851895 -32.61367113 138.96468936 -33.13867188 140.29101562 C-34.42066632 143.52941865 -35.71049047 146.76454199 -37 150 C-44.59 150 -52.18 150 -60 150 C-55.83717721 137.97282174 -51.36162575 126.13277284 -46.609375 114.328125 C-45.90359928 112.56735487 -45.19814257 110.80645684 -44.49298096 109.04544067 C-42.63134525 104.39874901 -40.76554601 99.7537408 -38.89874268 95.10912323 C-36.97321646 90.31665156 -35.05117621 85.52278237 -33.12890625 80.72900391 C-30.84816574 75.04176464 -28.56712974 69.35464515 -26.28430176 63.66824341 C-22.11721392 53.28736741 -17.96183439 42.90202796 -13.828125 32.5078125 C-12.97949806 30.37597423 -12.13086558 28.24413815 -11.28222656 26.11230469 C-10.15373666 23.27696052 -9.02624488 20.44124402 -7.90222168 17.60412598 C-6.91696026 15.11769899 -5.9277169 12.63289412 -4.9375 10.1484375 C-4.6620636 9.449534 -4.3866272 8.75063049 -4.10284424 8.0305481 C-2.93348527 5.10640235 -1.75645148 2.63467722 0 0 Z M8 34 C5.15990866 41.03045748 2.3255409 48.06319939 -0.50170708 55.09883118 C-1.81494474 58.36632603 -3.13007926 61.6330293 -4.44970703 64.89794922 C-5.96968538 68.65880859 -7.48112279 72.4230503 -8.9921875 76.1875 C-9.46308807 77.34926758 -9.93398865 78.51103516 -10.41915894 79.70800781 C-10.85946442 80.80854492 -11.2997699 81.90908203 -11.75341797 83.04296875 C-12.33299759 84.48192505 -12.33299759 84.48192505 -12.92428589 85.94995117 C-14.1959678 89.55564146 -15.07269596 93.29078383 -16 97 C0.17 97 16.34 97 33 97 C32.26839778 93.34198888 31.52897006 90.48374572 30.20581055 87.07714844 C29.83840256 86.12555847 29.47099457 85.17396851 29.092453 84.19354248 C28.6945607 83.17576721 28.2966684 82.15799194 27.88671875 81.109375 C27.47589554 80.0501886 27.06507233 78.9910022 26.64179993 77.89971924 C25.77200948 75.65976853 24.90023117 73.42058886 24.02661133 71.18212891 C22.69850494 67.77820555 21.37705928 64.37175557 20.05664062 60.96484375 C19.20872881 58.78370039 18.36043376 56.60270595 17.51171875 54.421875 C17.11989914 53.41219666 16.72807953 52.40251831 16.3243866 51.36224365 C14.03378916 45.50180566 11.61598509 39.72286091 9 34 C8.67 34 8.34 34 8 34 Z " fill="#4F0003" transform="translate(910,182)"/>
<path d="M0 0 C6.6 0 13.2 0 20 0 C20.33 19.47 20.66 38.94 21 59 C24.96 54.545 24.96 54.545 29 50 C40.85220831 42.47224607 52.8503738 41.1576222 66.59375 43.65234375 C78.09952249 47.1070409 86.44029979 54.84953587 92.25 65.234375 C99.42613908 80.9585621 97.27988473 100.60067077 97.19561768 117.39050293 C97.18467452 120.14998849 97.18515271 122.90942557 97.18575573 125.6689291 C97.18542016 128.9654986 97.17660693 132.26203704 97.16796875 135.55859375 C97.16685593 136.79379257 97.1657431 138.02899139 97.16459656 139.30162048 C97.15821671 140.43112625 97.15183685 141.56063202 97.14526367 142.72436523 C97.14145187 143.72201401 97.13764008 144.71966278 97.13371277 145.74754333 C97 148 97 148 96 149 C94.5112814 149.08669432 93.018555 149.10703494 91.52734375 149.09765625 C90.62822266 149.09443359 89.72910156 149.09121094 88.80273438 149.08789062 C87.85720703 149.07951172 86.91167969 149.07113281 85.9375 149.0625 C84.5134082 149.05573242 84.5134082 149.05573242 83.06054688 149.04882812 C80.70696935 149.0370011 78.35351523 149.02052025 76 149 C75.99453156 147.83394478 75.99453156 147.83394478 75.98895264 146.64433289 C75.95089464 139.27469741 75.89384303 131.90555757 75.81609726 124.53624249 C75.77679134 120.74867348 75.74452114 116.96133108 75.72900391 113.17358398 C75.7137246 109.5098542 75.67908414 105.84674814 75.63169098 102.18329811 C75.61699211 100.79411084 75.60896568 99.40483446 75.60811615 98.01556969 C75.59605227 88.16835518 74.77785772 78.73751568 68.75 70.5625 C62.10481599 64.37039672 54.66670289 62.58435733 45.75390625 62.73046875 C38.74943474 63.41601277 32.82083771 65.58569701 28 70.8125 C22.6660524 77.67772443 20.91755383 84.6401527 20.79467773 93.2590332 C20.77473251 94.49994217 20.75478729 95.74085114 20.73423767 97.0193634 C20.71725743 98.36316811 20.70037848 99.70697409 20.68359375 101.05078125 C20.66300474 102.43369643 20.64200777 103.8166056 20.62062073 105.19950867 C20.56560101 108.82767849 20.5161037 112.45590321 20.46777344 116.08416748 C20.41741102 119.791187 20.36180213 123.49812746 20.30664062 127.20507812 C20.19930513 134.46998681 20.0982915 141.7349623 20 149 C13.4 149 6.8 149 0 149 C0 99.83 0 50.66 0 0 Z " fill="#4F0003" transform="translate(688,181)"/>
<path d="M0 0 C1.32837891 0.58587891 1.32837891 0.58587891 2.68359375 1.18359375 C15.31851555 7.36962342 22.99609157 16.97593834 28 30 C33.39534884 48.20930233 33.39534884 48.20930233 30 55 C2.61 55 -24.78 55 -53 55 C-48.84746097 68.49575186 -46.26742824 76.49292937 -34 83 C-25.22174824 87.11390016 -14.83991571 86.77711505 -5.6953125 84.0703125 C2.65069977 80.75609893 4.87183821 77.25632358 9 69 C15.93 69 22.86 69 30 69 C26.05481831 82.15060565 21.71750098 90.95681761 9.69140625 97.9140625 C-4.46078039 105.44291881 -20.42463737 107.82706054 -36.0625 103.375 C-50.21023629 98.28109495 -60.74383578 89.39317106 -67.55078125 75.93359375 C-74.44159718 60.01763837 -74.97868666 44.39016905 -69 28 C-67.33597147 24.35835702 -65.39061834 21.2071891 -63 18 C-62.37480469 17.15824219 -61.74960937 16.31648438 -61.10546875 15.44921875 C-47.19076081 -1.56338335 -20.53002068 -9.52274328 0 0 Z M-46 25 C-50.22887112 31.59521917 -50.22887112 31.59521917 -52 39 C-32.2 39 -12.4 39 8 39 C6.82578626 29.60629004 4.37602978 24.11830028 -3.0703125 18.25390625 C-16.35685909 9.62034055 -36.04853063 12.75036995 -46 25 Z " fill="#4F0003" transform="translate(558,227)"/>
<path d="M0 0 C0.9168457 0.00829834 1.83369141 0.01659668 2.77832031 0.02514648 C15.51418145 0.34162835 24.37033583 4.26238258 33.40625 13.19921875 C38.24137828 18.4728268 40.94035109 24.24868647 41.625 31.4375 C38.99080621 34.07169379 32.31082324 33.0460222 28.78491211 33.11254883 C22.3213065 32.97747017 22.3213065 32.97747017 19.171875 30.53515625 C17.6875 28.125 17.6875 28.125 16.66015625 25.69921875 C14.93308961 21.92574107 12.3304019 20.71102319 8.5625 19.25 C0.77381713 17.29865975 -6.32089718 17.85588352 -13.59765625 21.171875 C-15.78733597 22.73111946 -16.4757317 23.91493714 -17.375 26.4375 C-17.75714891 29.67418548 -17.3842634 32.34507231 -16.375 35.4375 C-10.26339578 41.90062714 0.06541964 42.61167414 8.34179688 44.26879883 C19.40483702 46.51649692 31.04902513 49.2449331 38.44140625 58.43359375 C43.1333834 66.37743625 43.99331445 74.37075619 42.625 83.4375 C39.41369396 93.62941101 33.84848976 99.33818038 24.625 104.1875 C12.9645504 109.94101132 -1.13271077 110.340828 -13.5625 106.75 C-18.63681723 104.92530905 -23.03659802 102.6238383 -27.375 99.4375 C-28.24125 98.880625 -29.1075 98.32375 -30 97.75 C-34.94755225 92.93264649 -38.84133978 86.18560496 -40.375 79.4375 C-40.375 77.4575 -40.375 75.4775 -40.375 73.4375 C-34.105 73.4375 -27.835 73.4375 -21.375 73.4375 C-20.715 74.984375 -20.055 76.53125 -19.375 78.125 C-16.73354347 83.45319518 -13.74707272 86.02119114 -8.375 88.4375 C-1.75650092 90.64366636 7.65852384 90.48059428 14.3125 88.25 C17.98637266 86.23976779 19.71578341 85.17638248 21.625 81.4375 C22.46518143 76.58045116 22.46886527 72.82385008 19.875 68.5625 C10.84516835 62.6583793 -0.87431698 61.03004987 -11.28320312 58.81445312 C-21.88881101 56.41330686 -30.13730365 52.63455797 -36.375 43.4375 C-39.56356565 36.08993568 -39.48309808 27.66935599 -36.75 20.1875 C-32.89933121 11.69179367 -26.86712241 5.93419774 -18.13720703 2.5769043 C-11.99924737 0.6352534 -6.42542123 -0.07553022 0 0 Z " fill="#4F0003" transform="translate(634.375,223.5625)"/>
<path d="M0 0 C8.90309516 7.12247613 14.9679909 14.68492795 16.8125 26.25 C17.87721061 36.16402669 15.49835623 46.11908215 9.5625 54.1875 C2.74218637 62.09385083 -5.45913924 67.57371348 -15.99609375 68.6328125 C-27.0773463 69.12422353 -35.89864918 67.37300917 -44.5 60.0625 C-53.10784819 51.72835127 -57.41892604 43.74510769 -57.625 31.5625 C-57.58176522 20.24022862 -53.66700629 11.63980051 -45.79296875 3.44921875 C-32.05152009 -8.14963522 -15.32837175 -8.41557665 0 0 Z " fill="#4F0003" transform="translate(266.1875,263.75)"/>
<path d="M0 0 C6.27 0 12.54 0 19 0 C19 49.5 19 99 19 150 C12.4 150 5.8 150 -1 150 C-1.02311759 130.59008547 -1.0409785 111.18017481 -1.05181217 91.77024937 C-1.05697542 82.75853063 -1.06401866 73.74682058 -1.07543945 64.73510742 C-1.08538541 56.8834045 -1.09185322 49.03170786 -1.09408849 41.17999882 C-1.09539575 37.01996548 -1.09848255 32.85995015 -1.10573006 28.69992256 C-1.11248889 24.78891588 -1.11461724 20.87793473 -1.11310768 16.96692276 C-1.11338407 15.52732772 -1.11539001 14.08773187 -1.11920547 12.64814186 C-1.12414051 10.69105767 -1.12239807 8.73395996 -1.12025452 6.77687073 C-1.12117631 5.67901528 -1.1220981 4.58115984 -1.12304783 3.45003605 C-1 1 -1 1 0 0 Z " fill="#4F0003" transform="translate(995,182)"/>
<path d="M0 0 C17.16 0 34.32 0 52 0 C52 6.6 52 13.2 52 20 C51 21 51 21 48.94358826 21.12025452 C48.03979935 21.11803391 47.13601044 21.11581329 46.20483398 21.11352539 C45.18385117 21.11344986 44.16286835 21.11337433 43.11094666 21.11329651 C42.0005452 21.10813522 40.89014374 21.10297394 39.74609375 21.09765625 C38.61551041 21.0962413 37.48492706 21.09482635 36.32008362 21.09336853 C32.69252935 21.08775019 29.06503576 21.07519458 25.4375 21.0625 C22.98502693 21.05748736 20.5325529 21.05292405 18.08007812 21.04882812 C12.05336187 21.0377748 6.02669124 21.02049788 0 21 C0 14.07 0 7.14 0 0 Z " fill="#4F0003" transform="translate(802,256)"/>
</svg>
