<?xml version="1.0" encoding="UTF-8"?>
<svg version="1.1" xmlns="http://www.w3.org/2000/svg" width="679" height="336">
<path d="M0 0 C4 5 4 5 5.640625 7.24609375 C10.36140626 13.67414784 15.25169413 18.44911366 22.69140625 21.52734375 C25.09547461 22.88665343 25.8552022 23.51541794 26.65576172 26.19458008 C26.91531496 28.90087235 26.96986077 31.53169546 26.9375 34.25 C26.95361328 35.18585938 26.96972656 36.12171875 26.98632812 37.0859375 C27.02162671 39.39211185 27.02509478 41.6938216 27 44 C28.03253906 43.21238281 29.06507812 42.42476562 30.12890625 41.61328125 C37.86956875 36.09535865 47.63883934 34.95001475 56.83984375 36.46875 C68.05805107 38.84536895 76.49081969 44.48868202 83 54 C85.36141606 58.51290087 87.21071424 63.23534891 89 68 C89.268125 67.24976563 89.53625 66.49953125 89.8125 65.7265625 C94.93473495 52.34809358 102.29956165 43.95226899 115.36328125 37.90625 C127.0262139 33.67231142 140.83421483 35.04768206 152 40 C160.96615106 45.06782451 167.83721981 53.20968545 171 63 C172.8761867 70.11878838 175.42306362 81.15387276 172 88 C152.86 88 133.72 88 114 88 C116.85887041 96.21417472 116.85887041 96.21417472 123 101 C128.56149221 103.34662118 134.17658539 103.48820596 140 102 C144.4394151 99.69808106 146.76630671 97.46738659 149 93 C153.92078284 93.61984154 158.58060226 94.55628506 163.375 95.875 C164.59960938 96.20242187 165.82421875 96.52984375 167.0859375 96.8671875 C168.52839844 97.42792969 168.52839844 97.42792969 170 98 C171.22087756 101.66263268 170.71903663 102.3162098 169.0625 105.6875 C163.80032215 115.56486662 156.30818661 120.89094355 146 125 C135.00681262 128.02497102 121.10360432 127.11647673 111 122 C99.05365576 114.88570804 93.82114242 106.79949314 89 94 C88.29037109 95.57587891 88.29037109 95.57587891 87.56640625 97.18359375 C81.76939977 109.65562589 75.39005321 118.97345006 62 124 C52.39351957 127.03194565 43.379254 126.70555187 34 123 C31.12073306 121.21802849 28.53342883 119.24306449 26 117 C25.67 119.31 25.34 121.62 25 124 C16.75 124 8.5 124 0 124 C0 83.08 0 42.16 0 0 Z M117.1875 62.875 C114.63733314 66.07280115 114.63733314 66.07280115 114 71 C124.89 71 135.78 71 147 71 C145.97253616 64.83521694 145.3027397 63.20712326 141 59 C132.76249465 54.88124732 123.41839223 55.98729007 117.1875 62.875 Z M31.33203125 64.40234375 C26.66676943 69.77902379 25.10063863 75.02238804 25 82 C25.74816375 89.22037398 28.09119558 94.43748182 33.625 99.3125 C39.29443739 102.14721869 45.12709856 102.8884811 51.25 101 C56.23745985 98.76876796 59.58036803 95.09440518 61.84765625 90.15234375 C63.93046004 83.4349567 63.11541496 76.17012672 60.8125 69.625 C57.34032224 64.59632876 54.12089182 62.01150119 48.25 60.5 C42.21254233 59.55294782 36.13295926 60.36596634 31.33203125 64.40234375 Z " fill="#4E0002" transform="translate(80,150)"/>
<path d="M0 0 C8.58 0 17.16 0 26 0 C26 40.92 26 81.84 26 124 C17.75 124 9.5 124 1 124 C0.34 122.02 -0.32 120.04 -1 118 C-1.680625 118.598125 -2.36125 119.19625 -3.0625 119.8125 C-9.96602782 124.95342497 -17.50129859 126.77133429 -26 126 C-33.78635831 124.65276907 -40.38766735 122.32608099 -47 118 C-47.86625 117.443125 -48.7325 116.88625 -49.625 116.3125 C-59.24277146 106.94782779 -64.06824905 94.75075736 -64.25 81.4375 C-64.12355846 68.00659886 -60.15110818 56.75211489 -51 46.8515625 C-43.08156349 39.52082245 -33.04130619 36.0052521 -22.3125 35.6875 C-13.74106865 36.05882555 -8.5492709 38.28170569 -1 43 C-0.67 28.81 -0.34 14.62 0 0 Z M-31.875 65.3125 C-37.57629981 72.52296741 -37.89760705 79.07492987 -37 88 C-35.60141404 93.35292126 -32.72646936 97.13625062 -28.05078125 100.08984375 C-22.79859807 102.42081266 -17.23039524 102.67660275 -11.75 101 C-6.12415629 98.49456353 -2.90601882 94.22386439 -0.625 88.625 C0.62832322 81.35572532 0.85497411 74.53968822 -3 68 C-6.88412334 63.13405659 -11.32968648 60.96632911 -17.44140625 60.0546875 C-23.17970931 59.93203675 -27.45424692 61.75667687 -31.875 65.3125 Z " fill="#4E0002" transform="translate(601,150)"/>
<path d="M0 0 C9.48445007 7.6551051 15.87231729 17.34928288 17.75390625 29.51171875 C19.01919913 42.30523569 17.15468224 55.24390529 8.98828125 65.53515625 C-0.1195755 76.03470588 -9.95292237 82.11418547 -24.125 83.15625 C-35.58635115 83.5970712 -45.71213641 80.69513841 -55 74 C-55.97066406 73.30390625 -55.97066406 73.30390625 -56.9609375 72.59375 C-65.10994724 66.18841483 -70.03342889 57.0980112 -72 47 C-73.48544051 32.63649153 -71.81128322 20.02275578 -62.90625 8.25 C-47.28902344 -10.18344774 -20.11870187 -13.36961658 0 0 Z M-41.5703125 22.90625 C-45.6213258 29.11008752 -46.6651245 34.64735098 -46 42 C-44.44345336 48.86351274 -41.16334488 52.86658136 -35.3125 56.8125 C-30.23434604 58.63297029 -25.10821131 59.09701576 -19.94140625 57.2734375 C-14.2186622 54.24592129 -11.02275585 50.02523019 -9 44 C-8.16260229 36.39526033 -8.17707963 29.2388236 -13 23 C-17.07431867 18.7554748 -20.80208499 16.86304613 -26.6875 16.6875 C-32.76561168 16.78496243 -37.60009352 18.08668069 -41.5703125 22.90625 Z " fill="#4E0002" transform="translate(152,92)"/>
<path d="M0 0 C9.40565941 7.29892441 14.17027739 17.35789855 15.94140625 29.00390625 C16.47974774 34.34886822 16.9275843 39.58052835 15.21484375 44.71875 C-3.92515625 44.71875 -23.06515625 44.71875 -42.78515625 44.71875 C-39.49222897 53.86454717 -39.49222897 53.86454717 -32.03515625 59.03125 C-25.20264055 60.47658986 -19.92218324 60.27653682 -13.609375 57.1796875 C-11.01661139 55.10325583 -9.5239095 52.52071439 -7.78515625 49.71875 C-5.24272721 50.34076946 -2.7012375 50.96626759 -0.16015625 51.59375 C0.55269531 51.76777344 1.26554687 51.94179687 2 52.12109375 C6.14280591 53.14729338 10.18211053 54.30665729 14.21484375 55.71875 C11.71303451 65.79746724 6.41557392 73.04973196 -2.453125 78.50390625 C-13.93649776 84.48603176 -26.39732806 85.15881457 -38.76171875 81.7578125 C-50.42605721 77.74913804 -58.49857356 71.07152337 -64.49609375 60.359375 C-70.1059822 48.86760351 -70.9004832 34.39447457 -67.16015625 22.15625 C-62.32565566 9.87492218 -54.61853453 1.48699362 -42.69921875 -4.05859375 C-28.83390847 -9.87607648 -12.5903608 -8.32555463 0 0 Z M-38.42578125 18.08203125 C-41.33655143 21.31900843 -41.90970678 23.34150264 -42.78515625 27.71875 C-31.89515625 27.71875 -21.00515625 27.71875 -9.78515625 27.71875 C-10.83692464 22.45990806 -11.75260531 19.39261548 -15.91015625 15.96875 C-23.34418673 12.73656283 -31.93847605 12.69138955 -38.42578125 18.08203125 Z " fill="#4E0002" transform="translate(395.78515625,91.28125)"/>
<path d="M0 0 C8.85576142 6.1170352 11.76636466 13.24548727 13.671875 23.64453125 C14.09045342 28.34010879 14.15908478 33.01021281 14.18359375 37.72265625 C14.20154495 39.01524353 14.21949615 40.30783081 14.23799133 41.6395874 C14.28495492 45.03256291 14.31510739 48.42547455 14.34143066 51.81866455 C14.37151135 55.29850894 14.41794496 58.77813398 14.46289062 62.2578125 C14.54831093 69.05327376 14.61440763 75.84877659 14.671875 82.64453125 C6.751875 82.64453125 -1.168125 82.64453125 -9.328125 82.64453125 C-9.988125 80.33453125 -10.648125 78.02453125 -11.328125 75.64453125 C-11.72902344 76.04285156 -12.12992187 76.44117188 -12.54296875 76.8515625 C-20.16765123 83.9575591 -27.58903328 85.24750712 -37.890625 84.9921875 C-45.92629634 84.17948892 -53.03157688 80.82853291 -58.328125 74.64453125 C-62.53463404 67.8859024 -64.16742669 61.58915411 -63.328125 53.64453125 C-61.1730798 46.55409755 -57.7217384 40.91329941 -51.328125 37.01953125 C-42.37008092 32.37354405 -32.25804383 31.17683494 -22.38305664 29.73388672 C-18.74283173 29.17762585 -16.4364424 28.71674285 -13.328125 26.64453125 C-13.53324531 21.65842547 -13.53324531 21.65842547 -16.265625 17.70703125 C-22.01113215 15.71369204 -27.21182527 15.68257683 -32.765625 18.20703125 C-35.92847466 21.21559556 -36.91133613 23.55158563 -38.328125 27.64453125 C-46.1528009 26.96999022 -53.67369114 25.37576167 -61.328125 23.64453125 C-61.03469735 15.72198459 -58.17329393 9.4250755 -52.46875 3.81640625 C-37.88906424 -7.73070488 -16.11643186 -9.38322459 0 0 Z M-24.328125 46.89453125 C-25.39546875 47.05888672 -25.39546875 47.05888672 -26.484375 47.2265625 C-30.96491272 48.02068765 -33.58689654 48.9507259 -36.328125 52.64453125 C-37.50323688 56.68397834 -37.7818415 58.69585129 -35.953125 62.51953125 C-32.22066564 65.54104597 -29.07082663 66.01834025 -24.328125 65.64453125 C-20.37821056 64.6449044 -17.47574934 63.10896456 -14.94140625 59.875 C-12.24135824 55.0717567 -11.93998561 51.07848273 -12.328125 45.64453125 C-16.4483182 45.64453125 -20.28896128 46.18475067 -24.328125 46.89453125 Z " fill="#4E0002" transform="translate(462.328125,191.35546875)"/>
<path d="M0 0 C8.61785629 5.93387103 11.11299581 12.93161544 13.15859985 22.92901611 C14.10379955 28.8345902 14.14117776 34.61383046 14.0625 40.58203125 C14.05825516 41.82739655 14.05401031 43.07276184 14.04963684 44.35586548 C14.03303567 48.2778417 13.9954189 52.19927661 13.95703125 56.12109375 C13.94023811 58.80337212 13.92793592 61.48566476 13.91601562 64.16796875 C13.88576341 70.69437949 13.8270049 77.21964099 13.76953125 83.74609375 C4.85953125 83.74609375 -4.05046875 83.74609375 -13.23046875 83.74609375 C-13.26785156 79.91757812 -13.30523437 76.0890625 -13.34375 72.14453125 C-13.38997873 68.43109466 -13.44120768 64.71775833 -13.49291992 61.00439453 C-13.52614656 58.42633165 -13.55418548 55.84819642 -13.5769043 53.27001953 C-13.61049082 49.56121021 -13.66281119 45.85306255 -13.71875 42.14453125 C-13.72513992 40.99431488 -13.73152985 39.84409851 -13.7381134 38.6590271 C-13.85537709 30.77133966 -13.85537709 30.77133966 -17.23046875 23.74609375 C-20.79225043 21.37157263 -22.97593523 21.02972932 -27.23046875 20.74609375 C-33.06719417 21.86413741 -33.06719417 21.86413741 -37.23046875 25.74609375 C-39.81873881 31.57723595 -39.57916229 37.44546035 -39.64453125 43.70703125 C-39.6638974 44.8527359 -39.68326355 45.99844055 -39.70321655 47.17886353 C-39.7628366 50.82619866 -39.80932793 54.47356565 -39.85546875 58.12109375 C-39.89366465 60.59897184 -39.93271732 63.07683689 -39.97265625 65.5546875 C-40.07013086 71.61842041 -40.14984076 77.6820199 -40.23046875 83.74609375 C-48.81046875 83.74609375 -57.39046875 83.74609375 -66.23046875 83.74609375 C-66.23046875 55.36609375 -66.23046875 26.98609375 -66.23046875 -2.25390625 C-57.98046875 -2.25390625 -49.73046875 -2.25390625 -41.23046875 -2.25390625 C-40.90046875 0.38609375 -40.57046875 3.02609375 -40.23046875 5.74609375 C-39.30234375 4.83859375 -38.37421875 3.93109375 -37.41796875 2.99609375 C-26.73975614 -6.08899843 -12.0594208 -6.77946423 0 0 Z " fill="#4E0002" transform="translate(382.23046875,190.25390625)"/>
<path d="M0 0 C9.57 0 19.14 0 29 0 C30.28777344 3.44179687 31.57554687 6.88359375 32.90234375 10.4296875 C34.14646534 13.75254005 35.39096319 17.07525144 36.63549805 20.39794922 C37.50210325 22.71225475 38.36831549 25.02670746 39.23413086 27.34130859 C40.476675 30.66282039 41.72061841 33.98380517 42.96484375 37.3046875 C43.35341049 38.34430634 43.74197723 39.38392517 44.14231873 40.45504761 C44.50261673 41.41589264 44.86291473 42.37673767 45.23413086 43.36669922 C45.55167831 44.21497284 45.86922577 45.06324646 46.19639587 45.93722534 C46.97027712 48.01724643 46.97027712 48.01724643 48 50 C48.40839111 48.76958984 48.81678223 47.53917969 49.23754883 46.27148438 C50.76236583 41.678846 52.2892113 37.08688409 53.81665039 32.49511719 C54.47572731 30.51287752 55.13426409 28.53045818 55.79223633 26.54785156 C56.7415582 23.68766909 57.69286168 20.82815206 58.64453125 17.96875 C58.9352803 17.09134155 59.22602936 16.21393311 59.52558899 15.30993652 C59.80565292 14.46966919 60.08571686 13.62940186 60.37426758 12.76367188 C60.61631424 12.03531128 60.8583609 11.30695068 61.10774231 10.55651855 C62.34357515 7.01558006 63.68314533 3.51161245 65 0 C74.24 0 83.48 0 93 0 C89.62495817 11.25013944 89.62495817 11.25013944 87.95043945 15.66723633 C87.57607254 16.65979935 87.20170563 17.65236237 86.81599426 18.67500305 C86.41909897 19.71682236 86.02220367 20.75864166 85.61328125 21.83203125 C85.19257858 22.94446701 84.77187592 24.05690277 84.33842468 25.20304871 C82.99964329 28.74075182 81.65614123 32.27664023 80.3125 35.8125 C79.43002982 38.14246122 78.54786594 40.47253847 77.66601562 42.80273438 C75.94155671 47.35752079 74.2137476 51.91101267 72.48291016 56.46337891 C70.85125212 60.75496001 69.22614799 65.04892391 67.60693359 69.34521484 C67.23626266 70.32592453 66.86559174 71.30663422 66.48368835 72.31706238 C65.78954774 74.15360362 65.09739873 75.99089923 64.407547 77.82905579 C64.10314194 78.63272079 63.79873688 79.4363858 63.48510742 80.2644043 C63.22082443 80.9659111 62.95654144 81.66741791 62.68424988 82.3901825 C62 84 62 84 61 85 C59.00035018 85.08758003 56.9976389 85.10696576 54.99609375 85.09765625 C53.17368164 85.09282227 53.17368164 85.09282227 51.31445312 85.08789062 C50.03505859 85.07951172 48.75566406 85.07113281 47.4375 85.0625 C46.15423828 85.05798828 44.87097656 85.05347656 43.54882812 85.04882812 C40.36583978 85.03699545 37.18294238 85.02051068 34 85 C30.16572298 75.54966048 26.33364874 66.0984303 22.50386047 56.64627075 C20.47839451 51.64744707 18.45216799 46.64893342 16.42480469 41.65087891 C14.23244563 36.24584542 12.04189253 30.84008291 9.85244751 25.43386841 C8.99089815 23.30737894 8.12873355 21.18113862 7.26596069 19.05514526 C6.05199776 16.06345509 4.84019705 13.07089788 3.62890625 10.078125 C3.26086884 9.17254349 2.89283142 8.26696198 2.51364136 7.3339386 C2.18115387 6.51120956 1.84866638 5.68848053 1.50610352 4.84082031 C1.06766869 3.75912567 1.06766869 3.75912567 0.62037659 2.65557861 C0 1 0 1 0 0 Z " fill="#4E0002" transform="translate(241,87)"/>
<path d="M0 0 C8.58 0 17.16 0 26 0 C26 40.92 26 81.84 26 124 C17.42 124 8.84 124 0 124 C0 83.08 0 42.16 0 0 Z " fill="#4E0002" transform="translate(175,48)"/>
<path d="M0 0 C0 8.58 0 17.16 0 26 C-4.29 26 -8.58 26 -13 26 C-17.00030308 27.26931117 -17.00030308 27.26931117 -20 29 C-20.99 29.33 -21.98 29.66 -23 30 C-24.15020525 32.24743756 -24.15020525 32.24743756 -25 35 C-25.3407959 35.83740723 -25.6815918 36.67481445 -26.03271484 37.53759766 C-27.31620462 42.13185611 -27.35516589 46.46156996 -27.4140625 51.2109375 C-27.43342865 52.17907379 -27.4527948 53.14721008 -27.4727478 54.14468384 C-27.5322833 57.2213677 -27.5788247 60.29808951 -27.625 63.375 C-27.66320373 65.46746377 -27.70225685 67.55991222 -27.7421875 69.65234375 C-27.8395541 74.76814713 -27.91932958 79.88379734 -28 85 C-36.91 85 -45.82 85 -55 85 C-55 56.95 -55 28.9 -55 0 C-46.42 0 -37.84 0 -29 0 C-28.67 2.64 -28.34 5.28 -28 8 C-27.5875 7.60167969 -27.175 7.20335938 -26.75 6.79296875 C-19.89602298 0.50505679 -9.26780196 -4.63390098 0 0 Z " fill="#4E0002" transform="translate(471,87)"/>
<path d="M0 0 C8.25 0 16.5 0 25 0 C26.96822886 1.96822886 26.66248381 5.34808709 27 8 C27.845625 7.236875 28.69125 6.47375 29.5625 5.6875 C37.48039233 -0.74921617 43.96556482 -0.28669815 54 0 C54 8.91 54 17.82 54 27 C49.71 27 45.42 27 41 27 C35.72868438 28.5408461 32.92587685 30.3402702 30 35 C27.69909915 40.38538541 27.67326867 45.41927302 27.62109375 51.17578125 C27.60409927 52.14154587 27.5871048 53.10731049 27.56959534 54.1023407 C27.51666104 57.17232827 27.47622927 60.24230296 27.4375 63.3125 C27.39360183 66.40048449 27.34699185 69.48836371 27.29469299 72.57621765 C27.26267445 74.49476684 27.23580368 76.41340989 27.21446228 78.33210754 C27.20097244 79.19357895 27.1874826 80.05505035 27.17358398 80.94262695 C27.16407211 81.70396439 27.15456024 82.46530182 27.14476013 83.24971008 C27 85 27 85 26 86 C17.42 86 8.84 86 0 86 C0 57.62 0 29.24 0 0 Z " fill="#4E0002" transform="translate(482,188)"/>
<path d="M0 0 C1.5631897 0.00785522 1.5631897 0.00785522 3.15795898 0.01586914 C4.28266602 0.0190918 5.40737305 0.02231445 6.56616211 0.02563477 C7.75016602 0.03401367 8.93416992 0.04239258 10.15405273 0.05102539 C11.34192383 0.05553711 12.52979492 0.06004883 13.75366211 0.06469727 C16.69967499 0.07652864 19.64558954 0.09301252 22.59155273 0.11352539 C22.92155273 3.08352539 23.25155273 6.05352539 23.59155273 9.11352539 C24.58155273 7.99977539 24.58155273 7.99977539 25.59155273 6.86352539 C31.37599733 1.25485121 36.53919862 -0.23948795 44.59155273 -0.13647461 C48.05655273 -0.01272461 48.05655273 -0.01272461 51.59155273 0.11352539 C51.59155273 8.69352539 51.59155273 17.27352539 51.59155273 26.11352539 C48.9101719 27.45421581 46.95506012 27.06599346 43.96655273 26.92602539 C38.32134642 26.89895006 34.02742061 27.44725387 29.59155273 31.11352539 C25.86601457 35.79488676 24.50432858 40.73552645 24.38623047 46.60668945 C24.36628525 47.48730042 24.34634003 48.36791138 24.32579041 49.27520752 C24.30072166 50.68790924 24.30072166 50.68790924 24.27514648 52.12915039 C24.25436539 53.10011658 24.23358429 54.07108276 24.21217346 55.07147217 C24.14686411 58.16875224 24.0878795 61.26611607 24.02905273 64.36352539 C23.98584982 66.4650965 23.94223496 68.56665919 23.89819336 70.66821289 C23.79042768 75.81656584 23.69121561 80.96498368 23.59155273 86.11352539 C15.01155273 86.11352539 6.43155273 86.11352539 -2.40844727 86.11352539 C-3.42614601 82.04273043 -3.54917737 78.39186549 -3.5378418 74.23974609 C-3.53959412 73.45072906 -3.54134644 72.66171204 -3.54315186 71.8487854 C-3.54754685 69.24560333 -3.5446415 66.64248938 -3.54125977 64.03930664 C-3.54193328 62.23137906 -3.5429037 60.42345156 -3.54415894 58.61552429 C-3.54563255 54.83026262 -3.54349138 51.04502456 -3.53881836 47.25976562 C-3.53310903 42.39704933 -3.5364098 37.53438807 -3.54239082 32.67167377 C-3.54599508 28.94090862 -3.54485869 25.21015664 -3.54226303 21.4793911 C-3.54159402 19.68554872 -3.54242129 17.89170516 -3.54474258 16.09786415 C-3.54726821 13.59825061 -3.54343038 11.09872783 -3.5378418 8.59912109 C-3.53986603 7.85159073 -3.54189026 7.10406036 -3.54397583 6.33387756 C-3.5182902 0.16583932 -3.5182902 0.16583932 0 0 Z " fill="#4F0002" transform="translate(260.408447265625,187.886474609375)"/>
<path d="M0 0 C8.58 0 17.16 0 26 0 C26 28.05 26 56.1 26 85 C17.42 85 8.84 85 0 85 C0 56.95 0 28.9 0 0 Z " fill="#4E0002" transform="translate(212,87)"/>
<path d="M0 0 C4.84115976 2.33092877 7.70301121 5.14098526 10 10 C10.78154725 15.35120615 10.67637196 19.59715446 8.3125 24.5 C4.36159544 28.77124817 0.94734792 30.53667542 -4.94921875 31.05859375 C-9.14448027 30.93872914 -12.50926549 29.44836222 -15.51171875 26.53125 C-19.63305419 21.7131845 -20.35748721 18.71901391 -20.27734375 12.5390625 C-19.72629717 7.49426985 -16.99488756 4.90013636 -13.375 1.625 C-8.79729761 -0.57907893 -4.99447589 -0.7971639 0 0 Z " fill="#4E0002" transform="translate(230,46)"/>
</svg>
