<?xml version="1.0" encoding="UTF-8"?>
<svg version="1.1" xmlns="http://www.w3.org/2000/svg" width="1200" height="520">
<path d="M0 0 C0.00546844 1.92773254 0.00546844 1.92773254 0.01104736 3.89440918 C0.04802213 16.01817198 0.10582235 28.14168137 0.18390274 40.26525116 C0.22337642 46.49780821 0.25556567 52.73022399 0.27099609 58.96289062 C0.28616305 64.980132 0.32061021 70.99698499 0.36830902 77.01405334 C0.38312225 79.30726237 0.39104098 81.60052685 0.39188385 83.89378357 C0.39425532 87.11124867 0.42135129 90.32764204 0.45410156 93.54492188 C0.4490712 94.48863647 0.44404083 95.43235107 0.43885803 96.40466309 C0.53224836 102.35244057 1.49971839 107.08106667 5 112 C8.1598491 114.5015472 11.41069619 116.22081923 15 118 C13.73891621 122.23654242 12.47543546 126.47236017 11.2097168 130.70751953 C10.77936714 132.14872822 10.34967607 133.59013374 9.9206543 135.03173828 C9.30429871 137.10240803 8.68558736 139.17236115 8.06640625 141.2421875 C7.69459229 142.4885498 7.32277832 143.73491211 6.93969727 145.01904297 C6 148 6 148 5 150 C-4.82288854 149.50885557 -13.47575384 146.43954644 -21 140 C-23.58536556 141.01819297 -26.14763179 142.0649237 -28.69140625 143.18359375 C-49.34096252 152.20197139 -72.09911633 154.07734027 -93.58984375 146.78125 C-112.97800794 139.06883109 -127.71391262 125.44083238 -136.60546875 106.59765625 C-143.98306319 88.40247465 -144.81023051 67.29805606 -137.17041016 49.01464844 C-133.15126612 40.131142 -128.03476757 32.80589671 -121 26 C-120.2678125 25.28199219 -119.535625 24.56398437 -118.78125 23.82421875 C-105.93154008 11.81154979 -88.95598737 5.16675462 -71.4375 4.25 C-70.65955078 4.20907227 -69.88160156 4.16814453 -69.08007812 4.12597656 C-58.04844699 3.68992594 -47.42716267 5.31982494 -37 9 C-36.67 7.35 -36.34 5.7 -36 4 C-32.66683783 3.51963783 -29.33343987 3.04093096 -26 2.5625 C-25.06542969 2.42779297 -24.13085938 2.29308594 -23.16796875 2.15429688 C-20.44604963 1.76409169 -17.72325133 1.38078496 -15 1 C-14.26523437 0.89413574 -13.53046875 0.78827148 -12.7734375 0.67919922 C-8.48114648 0.0919094 -4.32703156 -0.0333197 0 0 Z M-97 50 C-103.69177649 58.6201594 -107.82527399 68.51869816 -107.34375 79.59375 C-105.48432161 92.60974874 -99.52873651 102.81876774 -89.51953125 111.2421875 C-79.08479533 118.52223582 -68.33141531 119.98616401 -56.03173828 118.01733398 C-51.49519657 117.03864657 -47.62029771 115.05023068 -43.53515625 112.90234375 C-42.80558716 112.52783081 -42.07601807 112.15331787 -41.32434082 111.76745605 C-39.5454719 110.85287986 -37.77213837 109.92755045 -36 109 C-35.81445371 100.87240969 -35.67240602 92.74570694 -35.58550262 84.61652088 C-35.54378715 80.84148563 -35.48723687 77.06790125 -35.39648438 73.29370117 C-35.30941101 69.6496074 -35.26169845 66.00690652 -35.24098206 62.36185265 C-35.22622484 60.97300975 -35.1974033 59.58424136 -35.15415955 58.19599342 C-34.62868245 50.58865636 -34.62868245 50.58865636 -37.73425293 44.05558777 C-39.79315064 42.74304783 -41.70957685 41.83042866 -44 41 C-44.9384375 40.55011719 -45.876875 40.10023438 -46.84375 39.63671875 C-63.60509976 33.64700111 -84.51848355 36.26039967 -97 50 Z " fill="#4F0003" transform="translate(795,184)"/>
<path d="M0 0 C0.76183594 0.67933594 1.52367187 1.35867187 2.30859375 2.05859375 C3.01886719 2.68636719 3.72914062 3.31414062 4.4609375 3.9609375 C9.84035566 9.00994994 13.54036979 14.75445691 17.30859375 21.05859375 C17.96859375 22.04859375 18.62859375 23.03859375 19.30859375 24.05859375 C19.21240234 26.05664062 19.21240234 26.05664062 18.30859375 28.05859375 C16.38525391 29.60742188 16.38525391 29.60742188 13.84765625 31.08984375 C12.91139404 31.64655762 11.97513184 32.20327148 11.01049805 32.77685547 C9.99511963 33.3648291 8.97974121 33.95280273 7.93359375 34.55859375 C5.80646385 35.82021991 3.68017221 37.08326037 1.5546875 38.34765625 C-0.03883545 39.2897998 -0.03883545 39.2897998 -1.66455078 40.25097656 C-5.82671472 42.73659213 -9.91910965 45.32345134 -14.00390625 47.93359375 C-22.54967819 53.37039534 -31.17614776 58.67099502 -39.8137207 63.96044922 C-48.28590542 69.16109708 -56.68008226 74.47587574 -65.01489258 79.89404297 C-66.2933606 80.71799561 -66.2933606 80.71799561 -67.59765625 81.55859375 C-68.34337891 82.04328125 -69.08910156 82.52796875 -69.85742188 83.02734375 C-71.69140625 84.05859375 -71.69140625 84.05859375 -73.69140625 84.05859375 C-70.42190922 90.92453751 -64.61478332 93.4697061 -57.69140625 96.05859375 C-40.56702897 100.23586695 -23.14711311 92.64639173 -8.69140625 84.05859375 C-7.70140625 83.39859375 -6.71140625 82.73859375 -5.69140625 82.05859375 C-3.70825195 82.08081055 -3.70825195 82.08081055 -1.69140625 83.05859375 C-0.02807617 85.49536133 -0.02807617 85.49536133 1.578125 88.703125 C2.15626953 89.85490234 2.73441406 91.00667969 3.33007812 92.19335938 C3.62358154 92.79704346 3.91708496 93.40072754 4.21948242 94.02270508 C5.11730449 95.86332541 6.0419854 97.68848187 6.97070312 99.51367188 C11.37237519 108.4113021 11.37237519 108.4113021 11.08349609 111.34301758 C8.05179907 118.05496936 -5.35985535 121.94341643 -11.75585938 124.38134766 C-33.40438802 131.95614817 -57.61444892 133.07283281 -78.796875 123.48828125 C-98.38939558 113.81100388 -112.55546789 100.07463182 -119.69140625 79.05859375 C-120.00980469 78.16269531 -120.32820312 77.26679688 -120.65625 76.34375 C-126.31376133 57.75478419 -122.77964479 37.25259468 -113.8046875 20.37890625 C-110.11343601 14.57934291 -105.5992284 9.8411098 -100.69140625 5.05859375 C-99.93730469 4.30707031 -99.18320312 3.55554688 -98.40625 2.78125 C-71.79938473 -22.37696562 -27.86072354 -23.5813164 0 0 Z M-79.9375 28.6328125 C-86.13297243 37.20160622 -89.42291409 46.45173003 -88.69140625 57.05859375 C-88.03140625 57.71859375 -87.37140625 58.37859375 -86.69140625 59.05859375 C-85.98983398 58.63263916 -85.28826172 58.20668457 -84.56542969 57.76782227 C-82.42850161 56.47040165 -80.29153481 55.1730448 -78.15454102 53.87573242 C-75.65726703 52.35957046 -73.16040544 50.84273222 -70.66381836 49.32543945 C-64.68936847 45.69523105 -58.7130746 42.06830178 -52.724823 38.46089172 C-50.17823015 36.92653598 -47.63319204 35.38961174 -45.08825684 33.85250854 C-43.87280422 33.11939091 -42.65658517 32.38754236 -41.4395752 31.65701294 C-39.73119624 30.63136723 -38.02569737 29.60092894 -36.3203125 28.5703125 C-35.3516626 27.98725342 -34.3830127 27.40419434 -33.38500977 26.8034668 C-30.66747688 25.04309269 -28.18289207 23.12364729 -25.69140625 21.05859375 C-31.69568008 15.26136384 -39.54029661 12.84336927 -47.75390625 12.62109375 C-60.72572619 13.13996655 -71.63616958 18.65444563 -79.9375 28.6328125 Z " fill="#4F0003" transform="translate(1057.69140625,204.94140625)"/>
<path d="M0 0 C2.39646077 2.13801893 4.74058872 4.30824378 7.0390625 6.55078125 C5.43088526 10.83242512 2.17151187 13.45507995 -1.1484375 16.42578125 C-2.02375122 17.22097168 -2.02375122 17.22097168 -2.91674805 18.03222656 C-6.87022037 21.61119414 -10.87177196 25.12729382 -14.9609375 28.55078125 C-18.06738206 27.16861869 -20.15985256 25.5399236 -22.5859375 23.17578125 C-29.01545011 17.47256544 -36.01053732 14.80445608 -44.6328125 15.23828125 C-48.42215424 15.74691773 -50.68376971 16.47747102 -53.9609375 18.55078125 C-56.26932865 22.30191687 -56.94766227 24.7808181 -57.0234375 29.17578125 C-55.70738865 33.35617173 -53.52762284 35.22719721 -49.9609375 37.55078125 C-47.40635586 38.70410724 -44.80139426 39.47969735 -42.10546875 40.234375 C-40.99204353 40.56865257 -40.99204353 40.56865257 -39.85612488 40.90968323 C-37.49909141 41.61647949 -35.1372078 42.30438209 -32.7734375 42.98828125 C-1.93599275 51.94170559 -1.93599275 51.94170559 5.60546875 65.33203125 C11.26788232 77.33441216 11.81439499 89.8360156 7.421875 102.4453125 C1.88187973 114.8868273 -7.62362379 122.25306939 -19.93359375 127.484375 C-37.63320058 133.71920424 -58.36621776 133.74476154 -75.7109375 126.30078125 C-84.57020212 121.8975158 -92.28373196 116.88010224 -98.9609375 109.55078125 C-94.57651224 104.29903199 -89.95251657 99.41855652 -85.0859375 94.61328125 C-84.39757812 93.92943359 -83.70921875 93.24558594 -83 92.54101562 C-81.32260239 90.87526661 -79.64289959 89.21191905 -77.9609375 87.55078125 C-75.09035018 88.94440749 -72.70774379 90.43452665 -70.2109375 92.42578125 C-60.60556764 99.75525191 -52.02146464 101.53448905 -39.9609375 100.55078125 C-35.89872363 99.3682665 -33.04693741 97.6017489 -30.0234375 94.67578125 C-28.61806721 91.86504066 -28.08946509 89.69970724 -27.9609375 86.55078125 C-30.28942795 81.11763686 -34.18522998 78.26680972 -39.58276367 76.09033203 C-40.96990802 75.63233131 -42.36052488 75.1847536 -43.75390625 74.74609375 C-45.28711532 74.23960132 -46.82031824 73.7330903 -48.35351562 73.2265625 C-50.74379946 72.45121647 -53.13536489 71.67998541 -55.52758789 70.91064453 C-69.52117246 66.38573816 -83.88857697 61.38542223 -91.3359375 47.61328125 C-96.06172746 36.80251396 -96.83856658 23.98079827 -92.9453125 12.796875 C-87.62956992 0.66770045 -78.86353147 -6.94415625 -66.5859375 -11.76171875 C-43.84848432 -19.21240962 -18.59138557 -15.37836247 0 0 Z " fill="#4F0003" transform="translate(542.9609375,203.44921875)"/>
<path d="M0 0 C19.20466294 -0.57220597 38.06610149 5.52063016 53.97265625 16.125 C52.67663752 18.83228056 51.25422934 21.30233028 49.546875 23.76953125 C48.84594727 24.78563477 48.84594727 24.78563477 48.13085938 25.82226562 C47.64552734 26.52029297 47.16019531 27.21832031 46.66015625 27.9375 C46.18642578 28.62392578 45.71269531 29.31035156 45.22460938 30.01757812 C42.18211067 34.41692304 39.09130123 38.77934716 35.97265625 43.125 C31.19207461 41.74114742 27.00320068 39.6746237 22.6328125 37.34375 C12.49741144 32.70021824 -0.2689717 32.37357618 -10.78515625 36.14453125 C-20.93734882 40.58390465 -29.05924706 47.05091908 -34.0390625 57.18359375 C-37.95160147 67.58522176 -38.05495195 78.78608824 -34.02734375 89.125 C-27.62810122 101.87283142 -18.45194625 108.66931242 -5.27734375 113.5 C7.65907543 116.21795474 20.26551052 111.77047187 31.09765625 104.98046875 C32.97265625 104.125 32.97265625 104.125 35.97265625 105.125 C37.65844727 107.04272461 37.65844727 107.04272461 39.4765625 109.52734375 C40.13462891 110.41744141 40.79269531 111.30753906 41.47070312 112.22460938 C42.15197266 113.16111328 42.83324219 114.09761719 43.53515625 115.0625 C44.88935007 116.90588519 46.2447619 118.7483764 47.6015625 120.58984375 C48.2004126 121.410896 48.7992627 122.23194824 49.41625977 123.07788086 C50.95489872 125.19719811 50.95489872 125.19719811 52.97265625 127.125 C52.61101631 130.58839793 51.76184377 131.34539486 49.22265625 134 C34.08728426 146.20096313 12.75154504 148.28366087 -6.02734375 147.125 C-25.65614463 144.67139989 -44.31431206 135.47879011 -57.02734375 120.125 C-70.22946687 102.64868952 -75.47254628 82.6910023 -72.75488281 60.94482422 C-70.03676117 44.59374405 -61.86513794 31.4444727 -50.02734375 20.125 C-48.87492188 19.01705078 -48.87492188 19.01705078 -47.69921875 17.88671875 C-34.58021973 6.39643899 -17.12824456 1.05607674 0 0 Z " fill="#4F0003" transform="translate(885.02734375,187.875)"/>
<path d="M0 0 C0 12.87 0 25.74 0 39 C10.23 39 20.46 39 31 39 C31 48.9 31 58.8 31 69 C20.77 69 10.54 69 0 69 C0.0909136 80.20429283 0.0909136 80.20429283 0.20898438 91.40820312 C0.26319934 95.98149476 0.31431323 100.5546667 0.34643555 105.12817383 C0.37255001 108.81773823 0.41300871 112.50689803 0.46318626 116.19621086 C0.47980024 117.59987268 0.49134847 119.00360439 0.49761391 120.40735054 C0.53213578 132.52434585 0.53213578 132.52434585 6.3125 142.8125 C14.43710292 149.42554889 27.01009347 148.19891407 37 148 C36.36431378 154.69059743 34.81450694 160.91295876 33 167.375 C32.72671875 168.37144531 32.4534375 169.36789062 32.171875 170.39453125 C30.14941109 177.70117781 30.14941109 177.70117781 29 180 C16.67568007 184.14002068 -0.80902444 181.00922661 -12.25 175.875 C-21.85946721 170.56450496 -28.88558479 163.21653776 -33 153 C-34.54840862 147.60488722 -35.2863828 142.74180437 -35.22705078 137.11523438 C-35.22734283 136.3727948 -35.22763489 135.63035522 -35.22793579 134.86541748 C-35.22655612 132.44140426 -35.21106017 130.0177087 -35.1953125 127.59375 C-35.19157751 125.90124682 -35.18873283 124.20874147 -35.18673706 122.51623535 C-35.17913888 118.0840853 -35.15952358 113.65206849 -35.1373291 109.2199707 C-35.11678806 104.68833213 -35.10771776 100.15667181 -35.09765625 95.625 C-35.07627372 86.74993235 -35.0411231 77.87499816 -35 69 C-41.93 69 -48.86 69 -56 69 C-54.875 60 -54.875 60 -53.58984375 55.40625 C-53.32236328 54.43945312 -53.05488281 53.47265625 -52.77929688 52.4765625 C-52.50150391 51.49429688 -52.22371094 50.51203125 -51.9375 49.5 C-51.65583984 48.48679688 -51.37417969 47.47359375 -51.08398438 46.4296875 C-50.39436064 43.95171747 -49.69787935 41.47565764 -49 39 C-44.38 39 -39.76 39 -35 39 C-35 31.08 -35 23.16 -35 15 C-27.17835094 11.00596644 -19.32330751 7.16322741 -11.3125 3.5625 C-10.14581787 3.03172852 -10.14581787 3.03172852 -8.95556641 2.49023438 C-8.2238623 2.16474609 -7.4921582 1.83925781 -6.73828125 1.50390625 C-5.76435425 1.06800171 -5.76435425 1.06800171 -4.77075195 0.62329102 C-3 0 -3 0 0 0 Z " fill="#4F0003" transform="translate(612,154)"/>
<path d="M0 0 C0 12.54 0 25.08 0 38 C-3.031875 38.721875 -6.06375 39.44375 -9.1875 40.1875 C-35.05757203 46.58967898 -57.72943247 59.26282715 -72.1484375 82.37890625 C-80.60414975 96.43677085 -85.31596219 110.89577315 -88 127 C-100.87 127 -113.74 127 -127 127 C-126.36682254 118.76869308 -125.76601155 111.49223398 -123.8125 103.625 C-123.59182861 102.72507324 -123.37115723 101.82514648 -123.14379883 100.89794922 C-114.48970268 66.92888255 -93.02321985 38.62681597 -63.6875 19.8125 C-44.35830998 8.36511562 -22.73096734 0 0 0 Z " fill="#4F0003" transform="translate(250,124)"/>
<path d="M0 0 C12.87 0 25.74 0 39 0 C39.99 5.28 40.98 10.56 42 16 C46.29334551 30.54555849 53.12323555 43.48053044 63 55 C63.44472656 55.58910156 63.88945312 56.17820312 64.34765625 56.78515625 C79.3839124 76.23572614 104.18831999 83.73576615 127 89 C127 100.88 127 112.76 127 125 C120.17754966 125 114.56146742 124.86150965 108.0625 123.4375 C107.25329102 123.26186523 106.44408203 123.08623047 105.61035156 122.90527344 C70.62919487 114.86595778 39.65648664 93.31916396 20.3828125 62.94921875 C8.98793631 44.38541117 0 22.06896907 0 0 Z " fill="#4F0003" transform="translate(123,269)"/>
<path d="M0 0 C27.12610996 2.08662384 52.62806226 10.74979311 74 28 C74.8053418 28.63929443 74.8053418 28.63929443 75.62695312 29.29150391 C101.14050379 49.67789515 117.07470017 77.19966367 124 109 C124.20753906 109.92296875 124.41507812 110.8459375 124.62890625 111.796875 C125.21229161 116.83241176 125 121.93078222 125 127 C113.12 127 101.24 127 89 127 C88.2265625 122.5759375 88.2265625 122.5759375 87.4375 118.0625 C82.63007459 92.94926831 68.96768381 70.7976277 47.97265625 55.84375 C32.70206677 46.02829075 17.69562208 41.64972205 0 38 C0 25.46 0 12.92 0 0 Z " fill="#4F0003" transform="translate(268,124)"/>
<path d="M0 0 C11.88 0 23.76 0 36 0 C36 12.90482327 36 12.90482327 34.4375 19.5 C34.17296021 20.63767822 34.17296021 20.63767822 33.90307617 21.79833984 C27.77870074 46.82438005 15.60792669 67.31203319 -2 86 C-2.54914063 86.60199219 -3.09828125 87.20398438 -3.6640625 87.82421875 C-23.05339322 108.31195983 -52.25676652 121.5391301 -80 125 C-82.97 125 -85.94 125 -89 125 C-89 113.12 -89 101.24 -89 89 C-84.545 88.01 -84.545 88.01 -80 87 C-53.74241639 80.84806348 -31.05337975 67.93419618 -16 45 C-7.09216276 30.63946524 -2.78592038 16.71552228 0 0 Z " fill="#4F0003" transform="translate(357,269)"/>
</svg>
